<svg width="1600" height="149" viewBox="0 0 3408 200" fill="none" xmlns="http://www.w3.org/2000/svg">
<g clip-path="url(#clip0_13_12785)">
<path d="M352.699 199.772C343.877 199.813 335.052 199.836 326.231 199.904C324.834 199.913 324.455 199.27 324.382 197.968C323.811 187.741 323.185 177.513 322.564 167.291C322.468 165.72 322.313 164.154 322.172 162.401C316.711 162.401 311.479 162.36 306.246 162.478C305.835 162.487 305.146 163.579 305.096 164.209C304.621 170.409 304.242 176.619 303.854 182.824C303.502 188.417 303.173 194.005 302.826 199.744C293.868 199.744 285.097 199.744 275.966 199.744C276.354 195.768 276.724 191.951 277.098 188.134C279.363 164.948 281.623 141.759 283.901 118.574C286.262 94.5622 288.65 70.5598 291.015 46.5483C292.467 31.8282 293.928 17.1035 295.288 2.37424C295.453 0.579882 296.124 0.0822104 297.813 0.0867762C308.922 0.127868 320.03 0.137 331.139 0.0639472C333.015 0.0502498 333.604 0.753382 333.769 2.52948C335.942 26.1757 338.152 49.8174 340.403 73.4545C342.243 92.7906 344.179 112.113 346.032 131.449C347.781 149.726 349.457 168.012 351.215 186.289C351.589 190.188 352.201 194.06 352.703 197.945C352.699 198.557 352.699 199.164 352.699 199.772ZM313.456 17.1674C313.168 17.2039 312.88 17.2405 312.593 17.277C312.501 17.9847 312.364 18.6924 312.332 19.4046C311.479 37.435 310.634 55.4698 309.798 73.5002C309.374 82.6683 309.05 91.8455 308.552 101.009C307.885 113.204 307.132 125.395 306.324 137.581C306.196 139.512 306.758 140.129 308.68 140.051C311.871 139.919 315.072 139.923 318.263 140.051C320.231 140.129 320.93 139.59 320.788 137.49C319.939 125.002 319.172 112.506 318.469 100.009C317.396 80.9241 316.405 61.8346 315.359 42.7495C314.93 34.8736 314.455 26.9976 313.971 19.1261C313.926 18.4641 313.634 17.8203 313.456 17.1674Z" fill="white"/>
<path d="M172.72 159.785C168.839 106.776 164.191 53.7851 165.506 0.420069C165.812 0.315056 166.081 0.141556 166.355 0.141556C173.204 0.118727 180.053 0.127859 186.901 0.0913323C188.198 0.0822008 188.687 0.639227 188.627 1.87199C188.586 2.70297 188.613 3.54307 188.613 4.37861C188.613 68.4641 188.613 132.55 188.613 196.635C188.613 199.909 188.613 199.913 185.239 199.913C176.03 199.913 166.826 199.886 157.616 199.932C156.082 199.941 155.329 199.617 155.096 197.891C152.777 180.746 150.361 163.615 147.969 146.48C144.572 122.14 141.175 97.7947 137.764 73.4591C136.408 63.7659 135.02 54.0773 133.637 44.3887C133.596 44.1056 133.486 43.8271 133.098 43.5622C133.098 45.0187 133.048 46.4752 133.107 47.9271C133.865 67.3363 134.979 86.741 135.322 106.164C135.856 136.444 135.847 166.738 136.143 197.023C136.166 199.315 135.495 200.037 133.167 199.973C127.158 199.808 121.145 199.858 115.136 199.936C113.365 199.959 112.593 199.365 112.762 197.594C112.817 196.991 112.771 196.379 112.771 195.772C112.771 132.143 112.771 68.5143 112.771 4.88085C112.771 0.105029 112.771 0.10503 117.661 0.10503C127.249 0.10503 136.837 0.159819 146.426 0.0593718C148.439 0.0365428 149.165 0.666622 149.453 2.65731C153.151 28.034 156.945 53.3924 160.689 78.7645C163.835 100.082 166.944 121.409 170.09 142.727C170.921 148.411 171.839 154.096 172.72 159.785Z" fill="white"/>
<path d="M259.67 102.014C261.072 103.671 263.254 105.995 265.135 108.538C269.345 114.227 271.149 120.82 271.258 127.76C271.455 139.905 271.486 152.059 271.244 164.204C271.103 171.391 269.573 178.381 265.811 184.668C259.615 195.019 249.995 199.489 238.348 199.799C227.093 200.1 215.825 199.845 204.566 199.945C202.529 199.964 202.411 198.964 202.415 197.42C202.447 186.714 202.429 176.007 202.429 165.3C202.429 111.999 202.429 58.6933 202.429 5.39222C202.429 4.6343 202.424 3.87181 202.429 3.11389C202.443 0.109601 202.443 0.0959034 205.401 0.100469C216.208 0.109601 227.016 0.0137191 237.818 0.178088C246.238 0.30593 254.041 2.41076 260.465 8.28237C265.291 12.6929 268.304 18.1993 269.56 24.4727C270.582 29.5727 271.185 34.8233 271.299 40.0238C271.537 51.0273 271.491 62.0446 271.263 73.0481C271.089 81.3488 269.5 89.3435 264.172 96.1328C262.524 98.2239 260.935 100.356 259.67 102.014ZM229.038 58.3098C229.038 62.4053 229.038 66.5008 229.038 70.5963C229.038 76.8149 229.034 83.0335 229.029 89.2521C229.029 90.3297 228.892 91.4118 230.54 91.4529C238.836 91.6446 244.43 90.7406 244.685 79.5087C244.694 79.0522 244.745 78.6001 244.749 78.1436C244.758 64.5695 244.772 50.9908 244.763 37.4167C244.763 36.2068 244.649 34.9877 244.48 33.7915C243.649 27.9883 240.334 25.1164 234.458 25.0662C233.472 25.0571 232.472 25.1347 231.499 25.0069C229.623 24.7603 228.984 25.4224 229.002 27.3674C229.079 37.6815 229.034 47.9956 229.038 58.3098ZM229.038 143.9C229.038 152.324 228.961 160.752 229.061 169.176C229.139 175.947 227.591 175.048 235.156 174.929C239.864 174.856 242.635 172.564 243.918 168.071C244.288 166.77 244.571 165.396 244.58 164.049C244.662 151.224 244.836 138.394 244.662 125.573C244.525 115.761 241.343 112.999 231.499 113.003C229.426 113.003 228.979 113.729 228.997 115.661C229.089 125.075 229.034 134.49 229.038 143.9Z" fill="white"/>
<path d="M43.284 0.269385C39.4214 2.21898 38.458 5.27806 38.3712 8.80742C38.3393 10.1406 38.2479 11.136 36.7458 12.1222C34.8008 13.4006 35.6911 15.8479 36.5769 17.5281C38.006 20.2356 37.28 22.8335 36.1705 25.089C35.6409 26.162 33.3945 26.6049 31.8421 26.9291C28.8972 27.5409 25.8792 27.792 22.916 28.3216C19.3456 28.9563 17.0718 31.4127 15.1861 34.2435C14.0949 35.878 13.0128 37.5673 12.2457 39.3663C8.52463 48.0687 4.91308 56.8213 1.25588 65.5465C0.0870416 68.3362 1.74899 70.715 2.48408 73.1851C2.64389 73.7284 3.97253 74.1211 4.81264 74.2352C6.37414 74.4544 7.9676 74.4133 9.88067 74.5C9.58389 75.4178 9.53823 76.2213 9.12731 76.7236C4.43824 82.4491 3.7762 89.0056 5.76232 95.7538C6.88094 99.5617 9.05426 103.059 10.7482 106.698C11.2595 107.798 11.9307 108.858 12.2321 110.013C12.8804 112.492 13.9488 114.282 16.912 114.2C17.3914 114.186 18.0123 114.889 18.3639 115.405C23.4319 122.774 27.8699 130.673 33.673 137.403C39.4259 144.074 45.9322 150.274 53.5479 155.027C56.5842 156.922 58.0589 159.387 57.4106 163.145C57.196 164.391 58.027 165.894 58.6114 167.177C59.4241 168.962 60.6477 170.578 61.328 172.409C61.9079 173.975 61.9718 175.728 62.2549 177.404C62.3188 177.774 62.1864 178.258 62.3782 178.513C64.6793 181.614 63.1315 184.947 62.9945 188.184C62.9169 190.074 62.474 191.982 62.6293 193.845C62.7936 195.836 63.4694 197.786 63.9579 199.9C63.9168 199.9 63.2822 199.9 62.643 199.9C47.7311 199.9 32.8146 199.644 17.9119 199.986C7.6206 200.228 -0.054498 192.434 0.000291489 182.216C0.187489 147.224 0.055081 112.227 0.0505152 77.2304C0.0459494 57.3464 0.0368178 37.4623 0.055081 17.5783C0.0642126 9.57447 3.99993 3.62068 10.9308 1.0821C11.9901 0.694004 13.1315 0.315043 14.241 0.305912C23.7287 0.241991 33.2164 0.269385 43.284 0.269385Z" fill="white"/>
<path d="M82.3174 109.333C82.3767 110.378 82.4315 110.953 82.4315 111.524C82.4361 135.289 82.4452 159.054 82.427 182.819C82.4178 190.718 78.0301 197.009 71.0992 199.219C70.6929 199.352 70.2637 199.425 69.2364 199.671C73.7885 195.535 72.5283 191.101 71.4143 186.604C70.1678 181.568 68.9716 176.509 68.0675 171.409C67.7662 169.706 68.1589 167.734 68.7341 166.053C69.9852 162.396 69.2364 159.319 67.1133 156.2C65.9718 154.525 65.2459 152.443 64.8076 150.438C63.9492 146.516 63.657 142.462 62.6845 138.576C61.922 135.526 60.9221 132.371 59.2738 129.732C55.9773 124.464 54.772 118.775 54.119 112.729C53.5803 107.776 52.2379 102.913 51.3978 97.9819C51.1558 96.5665 51.7585 94.9822 51.407 93.6216C50.0464 88.339 48.5168 83.0929 46.9097 77.8742C46.5216 76.6186 45.8276 75.2489 44.8596 74.4224C43.4853 73.2536 43.3575 72.1806 43.983 70.6648C45.1975 67.7199 46.4394 64.7795 47.453 61.7661C48.6127 58.3052 51.6627 57.3053 54.6076 55.5612C55.7993 61.4328 56.4704 67.1217 58.178 72.4774C59.8628 77.7646 62.5977 82.7185 64.9308 87.9509C57.4475 90.7771 53.247 95.9273 53.8588 103.922C54.3473 110.319 57.9269 114.962 64.141 116.798C71.7613 119.053 77.8155 116.373 82.3174 109.333Z" fill="white"/>
<path d="M82.4314 95.2059C80.7146 93.4481 79.0983 91.7725 77.4592 90.1196C77.094 89.7544 76.683 89.2384 76.2402 89.1791C73.7883 88.8458 73.3044 87.129 73.1628 85.1018C72.8386 80.5543 71.3548 76.3766 69.2225 72.3724C68.5605 71.1259 68.0674 69.7014 67.8711 68.3088C67.0538 62.4692 66.3233 56.6204 65.6703 50.7579C64.9672 44.4434 62.4332 39.3434 56.799 35.9328C54.0413 34.2617 51.5392 32.1752 48.8911 30.3169C47.6766 29.4631 47.9322 28.6778 48.7313 27.6824C50.8817 24.9977 53.0185 22.2993 55.0457 19.5188C55.968 18.2541 56.9132 16.8706 55.9863 15.1174C55.8539 14.8662 56.0639 14.3914 56.1963 14.049C59.2919 6.09991 57.1551 4.78953 51.2972 0.0274098C53.0231 0.0274098 54.3928 0.0274098 55.7626 0.0274098C59.3376 0.0319756 62.9172 -0.063906 66.4876 0.0685019C75.4183 0.392673 82.3264 7.25049 82.3675 16.1766C82.477 40.4712 82.4222 64.7658 82.4314 89.0604C82.4314 91.1424 82.4314 93.2289 82.4314 95.2059Z" fill="white"/>
</g>
<path d="M514.698 65.6158C516.806 64.2743 518.694 62.869 520.76 61.8044C530.952 56.5806 541.03 51.087 551.457 46.3672C561.613 41.775 572.522 39.9367 583.658 41.193C596.81 42.6764 607.662 48.8158 615.995 59.1002C623 67.738 626.79 77.7881 628.65 88.7184C629.75 95.1772 630.211 101.629 629.899 108.123C629.303 120.622 626.954 132.759 621.325 144.044C615.072 156.578 605.782 166.274 593.197 172.527C587.704 175.259 581.813 177.012 575.737 178.219C560.236 181.292 544.977 180.228 529.781 176.26C527.169 175.579 526.012 174.244 525.856 171.625C525.558 166.558 525.16 161.497 524.699 156.436C524.443 153.619 523.961 150.822 523.627 148.012C523.492 146.876 523.485 145.726 523.421 144.633C525.288 143.519 526.878 143.959 528.482 144.349C531.115 144.981 533.727 145.875 536.396 146.095C540.164 146.408 541.733 144.931 541.648 141.141C541.435 131.808 541.123 122.467 540.59 113.148C540.242 107.023 539.533 100.912 538.795 94.8223C538.39 91.4723 537.588 88.1648 537.02 85.1412C534.593 84.0837 533.045 84.8218 531.569 85.9362C529.497 87.5047 527.467 89.123 525.345 90.6206C524.124 91.4794 522.761 92.1466 521.1 93.1118C520.511 92.0472 519.865 91.3374 519.695 90.5283C518.034 82.4371 516.444 74.3387 514.698 65.6158ZM602.502 101.48C602.346 98.5486 602.389 95.5889 601.998 92.686C601.125 86.291 598.556 80.7124 593.418 76.539C586.178 70.648 577.952 68.1354 568.697 69.6969C565.474 70.2363 562.33 71.3152 559.193 72.2946C556.993 72.976 556.12 74.6226 556.247 76.9435C556.46 80.833 556.46 84.7296 556.695 88.6191C557.44 100.749 558.228 112.879 559.058 125.001C559.299 128.529 559.626 132.056 560.137 135.548C560.79 140.02 563.026 141.851 567.426 140.978C574.282 139.622 580.897 137.493 586.469 132.965C596.469 124.838 602.027 114.511 602.502 101.48Z" fill="white"/>
<path d="M713.204 111.161C715.127 112.907 716.972 114.532 718.768 116.214C723.623 120.743 729.507 122.496 735.973 122.489C739.55 122.482 742.261 120.842 744.007 117.606C745.725 114.426 745.902 111.331 743.986 108.201C741.445 104.063 737.662 101.231 733.765 98.5344C728.045 94.5597 722.168 90.7909 716.568 86.653C711.131 82.6358 706.12 78.1217 703.253 71.7552C697.17 58.2201 699.811 41.4414 711.571 31.7178C720.252 24.5421 730.202 20.7449 741.381 20.0635C751.701 19.4389 760.275 23.4633 767.727 30.2344C770.247 32.5269 772.681 34.9542 774.875 37.5591C776.897 39.958 776.94 41.9383 774.946 44.2521C771.475 48.2693 767.798 52.1091 764.079 55.8992C762.709 57.2974 761.176 57.2619 759.586 55.9986C758.493 55.1256 757.613 53.9758 756.705 52.904C753.575 49.2275 750.026 46.3104 745.079 45.3238C739.465 44.2024 733.474 46.3601 731.168 50.6541C728.137 56.2896 728.833 62.3296 733.652 66.4462C737.307 69.5692 741.523 72.0391 745.533 74.7433C751.822 78.9876 757.755 83.6011 762.624 89.5134C768.288 96.3909 771.354 104.312 772.412 113.056C773.349 120.785 772.795 128.401 769.764 135.662C765.066 146.94 756.989 154.726 745.476 158.963C736.782 162.164 727.917 162.64 718.988 160.468C710.5 158.395 702.969 154.236 696.077 148.913C695.247 148.274 694.551 147.43 693.884 146.606C692.472 144.853 692.358 142.965 693.515 141.02C698.746 132.184 703.977 123.34 709.215 114.504C710.067 113.056 711.06 111.757 713.204 111.161Z" fill="white"/>
<path d="M796.004 100.799C791.902 106.548 794.648 114.66 801.256 117.237C808.9 120.225 816.644 120.849 824.451 118.195C826.857 117.371 829.043 115.874 831.314 114.66C832.109 114.234 832.862 113.73 834.033 113.028C834.743 114.433 835.481 115.476 835.821 116.64C837.355 121.85 838.802 127.088 840.215 132.333C840.548 133.575 840.662 134.888 840.825 136.173C841.038 137.869 840.328 139.04 838.902 140.027C823.834 150.482 805.096 149.602 791.149 140.609C784.513 136.329 780.318 130.076 778.239 122.546C774.3 108.251 776.067 94.4817 782.54 81.2305C785.748 74.6581 790.021 68.9801 795.954 64.5725C799.311 62.0741 803.116 60.9172 807.105 60.3991C817.339 59.0648 824.252 60.463 831.556 71.8972C835.09 77.4333 837.518 83.4521 838.703 89.9038C839.846 96.1141 837.113 99.7836 830.711 100.117C821.747 100.593 812.761 100.614 803.783 100.799C801.093 100.848 798.396 100.799 796.004 100.799ZM799.326 88.6333C807.076 88.7681 814.174 89.2508 821.144 87.1215C820.846 83.0404 819.149 80.1233 816.843 77.5114C813.308 73.5154 808.695 74.0478 805.281 76.1132C800.781 78.8315 800.142 83.3598 799.326 88.6333Z" fill="white"/>
<path d="M868.818 75.5454C867.064 81.0318 865.347 86.2982 863.693 91.5788C861.543 98.4422 861.344 105.178 864.282 111.984C866.298 116.647 869.776 118.897 874.51 119.636C879.201 120.367 882.999 118.564 885.589 114.795C889.699 108.798 891.296 102.069 889.642 94.8863C888.088 88.1152 886.228 81.4151 884.39 74.211C885.355 73.7994 886.434 73.1251 887.605 72.8696C892.105 71.9043 896.619 71.0242 901.147 70.208C904.057 69.6828 905.164 70.3713 905.867 73.5723C907.003 78.7606 908.074 83.9702 908.827 89.2224C910.26 99.2442 910.232 109.252 907.478 119.103C905.029 127.862 900.899 135.52 893.155 140.793C882.885 147.792 872.409 147.706 861.791 141.688C850.797 135.456 845.154 125.718 843.259 113.461C841.691 103.304 842.691 93.4526 846.261 83.8354C847.702 79.9601 849.044 76.0564 850.492 72.1882C851.407 69.7538 852.373 69.0227 854.41 69.7112C859.094 71.301 863.707 73.1251 868.335 74.8782C868.52 74.9705 868.612 75.2615 868.818 75.5454Z" fill="white"/>
<path d="M959.993 82.8771C957.807 86.7098 954.464 89.4282 951.27 92.5369C950.134 91.8626 949.247 91.3232 948.339 90.8122C947.423 90.3012 946.529 89.6908 945.542 89.3643C942.157 88.2358 939.595 88.9455 937.948 91.3374C936.45 93.5164 936.642 96.831 938.927 99.1377C942.746 102.999 946.728 106.704 950.802 110.288C959.993 118.365 961.349 127.521 957.062 138.487C953.825 146.77 947.97 152.675 938.97 154.35C930.723 155.89 922.688 154.776 915.456 150.191C912.886 148.565 910.558 146.521 908.237 144.541C906.896 143.391 906.903 141.886 907.826 140.368C910.338 136.244 912.823 132.099 915.342 127.975C915.64 127.485 916.109 127.102 916.797 126.336C917.869 126.896 919.012 127.365 920.012 128.046C921.375 128.969 922.603 130.09 923.937 131.063C925.854 132.468 928.054 132.787 930.354 132.468C934.051 131.957 936.245 129.558 936.5 125.825C936.77 121.843 935.017 118.699 932.199 116.143C929.14 113.368 925.79 110.905 922.816 108.052C917.4 102.843 914.909 96.5329 917.258 89.0875C920.126 79.9884 927.905 71.0029 940.51 71.3293C949.034 71.5565 955.614 75.162 959.993 82.8771Z" fill="white"/>
<path d="M966.942 136.797C968.922 137.883 970.398 138.806 971.974 139.53C974.217 140.559 976.453 141.723 978.823 142.312C982.195 143.15 985.055 142.05 987.205 139.133C989.271 136.336 989.278 133.504 987.908 130.466C986.375 127.074 983.586 124.902 980.654 122.886C976.027 119.714 971.939 116.009 968.929 111.232C967.02 108.201 965.693 104.965 965.338 101.345C964.585 93.5519 969.994 84.8502 977.333 81.6776C986.794 77.5823 995.801 78.7037 1004.03 84.9425C1006.16 86.5678 1008.1 88.5339 1009.83 90.5993C1011.76 92.8847 1011.52 94.4178 1009.37 96.4264C1007.38 98.2788 1005.35 100.082 1003.27 101.821C1002.4 102.544 1001.34 103.034 1000.32 103.652C998.739 102.346 997.504 101.026 996.006 100.16C993.998 98.9957 991.869 97.8601 989.64 97.2923C986.971 96.6109 984.757 97.9736 983.344 100.252C981.96 102.481 982.117 104.972 983.713 106.902C985.722 109.323 987.972 111.636 990.47 113.539C994.587 116.683 999.122 119.288 1003.24 122.439C1008.56 126.499 1010.66 132.056 1009.74 138.692C1008.74 145.897 1006.11 152.32 1000.85 157.558C995.268 163.129 988.54 165.181 980.818 164.386C974.87 163.775 969.27 162.015 964.018 159.183C962.989 158.63 962.016 157.92 961.157 157.132C958.765 154.96 958.609 153.47 960.064 150.545C961.796 147.068 963.414 143.533 965.111 140.041C965.544 139.125 966.104 138.252 966.942 136.797Z" fill="white"/>
<path d="M632.391 154.548C632.32 153.264 631.929 151.951 632.242 150.851C634.641 142.532 635.641 133.958 636.607 125.413C637.196 120.168 638.062 114.859 637.068 109.536C636.898 108.613 636.976 107.648 636.926 106.704C636.472 98.215 636.01 89.7334 635.57 81.2447C635.514 80.0877 635.563 78.9308 635.563 77.5681C641.901 75.2472 648.112 73.7638 654.599 73.6857C657.402 76.4822 656.92 80.1729 657.885 83.3526C659.39 84.6444 660.873 83.7004 662.25 83.2604C665.65 82.1673 669.078 81.415 672.676 81.5286C676.751 81.6563 680.321 83.0616 683.259 85.8226C685.225 87.6751 687.092 89.6695 688.696 91.8342C689.356 92.7214 689.661 94.3752 689.32 95.4114C687.631 100.621 683.699 103.886 678.951 106.895C677.829 105.533 676.829 104.418 675.948 103.212C672.783 98.875 668.212 97.6117 663.208 97.5265C661.902 97.5052 660.589 98.2647 659.085 98.7189C659.085 100.678 659.085 102.31 659.085 103.95C659.085 107.846 658.971 111.75 659.099 115.647C659.411 125.725 657.928 135.669 656.813 145.634C656.565 147.841 655.834 149.999 655.309 152.178C655.011 153.427 654.294 154.485 652.967 154.506C646.266 154.591 639.559 154.548 632.391 154.548Z" fill="white"/>
<path d="M678.589 126.243C682.428 126.137 686.467 130.317 686.673 134.604C686.893 139.175 682.017 144.051 677.141 144.129C672.882 144.2 669.809 141.262 669.575 135.3C669.312 128.94 673.301 126.811 678.589 126.243Z" fill="white"/>
<path d="M1032.15 99.6841C1030.99 99.5279 1030.32 99.4428 1029.52 99.3363C1029.35 98.1652 1029.19 97.0935 1029.03 95.9934C1027.73 96.8947 1028.3 99.535 1025.64 99.237C1025.21 98.222 1024.77 97.1716 1024.16 95.7591C1023.86 97.0225 1023.64 97.9949 1023.41 98.9601C1021.39 99.3363 1020.89 98.3072 1021 96.7883C1021.15 94.9216 1021.39 93.055 1021.62 90.8831C1020.4 91.2877 1019.48 91.5929 1018.46 91.9335C1018.24 94.0699 1018.03 96.1495 1017.8 98.4491C1016.76 98.4491 1015.9 98.4491 1014.62 98.4491C1014.75 96.0501 1014.86 93.8712 1014.97 91.891C1014.59 90.6063 1011.88 91.2735 1013.14 88.8887C1017.24 87.9234 1021.35 89.4778 1025.62 89.3855C1026.14 90.2301 1026.6 91.0109 1027.22 92.0329C1027.89 91.1883 1028.51 90.4147 1029.29 89.4281C1030.36 89.5913 1031.47 89.7617 1033.07 90.003C1032.74 93.3602 1032.46 96.4334 1032.15 99.6841Z" fill="white"/>
<path d="M1232.75 20.0508C1250.89 20.0508 1269 20.0508 1287.24 20.0508C1286.87 21.4048 1286.52 22.7226 1286.16 24.0333C1275.64 61.8931 1265.12 99.7512 1254.59 137.611C1253.89 140.151 1254.71 142.179 1256.99 143.53C1258.42 144.377 1260 144.766 1261.64 144.779C1265.65 144.81 1269.66 144.858 1273.67 144.748C1275.34 144.703 1277.03 144.401 1278.64 143.983C1281.07 143.358 1282.36 141.516 1283.01 139.227C1284.9 132.58 1286.74 125.92 1288.59 119.262C1297.71 86.466 1306.82 53.6714 1315.94 20.8751C1316.08 20.3545 1316.2 20.002 1316.92 20.002C1334.67 20.0273 1352.42 20.0218 1370.17 20.0236C1370.29 20.0236 1370.41 20.0363 1370.64 20.049C1370.32 21.2222 1370.02 22.3629 1369.71 23.5C1357.55 67.235 1345.4 110.97 1333.21 154.696C1332.49 157.296 1331.68 159.892 1330.64 162.379C1327.24 170.534 1321.16 175.563 1312.55 177.624C1307.37 178.864 1302.11 179.461 1296.82 179.768C1293.96 179.932 1291.1 179.956 1288.24 179.958C1266.96 179.972 1245.69 180.068 1224.41 179.913C1216.54 179.855 1209.06 177.942 1202.65 173.048C1198.94 170.219 1196.33 166.584 1195.42 161.949C1194.86 159.064 1194.97 156.135 1195.76 153.273C1201.09 134.048 1206.42 114.826 1211.75 95.6042C1218.66 70.7095 1225.58 45.8167 1232.5 20.9221C1232.58 20.6365 1232.67 20.3527 1232.75 20.0508Z" fill="white"/>
<path d="M1657.24 20.0234C1656.53 22.6374 1655.88 25.1629 1655.18 27.6775C1652.74 36.4776 1650.28 45.2706 1647.86 54.0761C1647.64 54.8788 1647.34 55.159 1646.47 55.1572C1627.57 55.1283 1608.68 55.1228 1589.79 55.1518C1587.69 55.1554 1585.58 55.3145 1583.49 55.5459C1580.12 55.9183 1578.19 57.9701 1577.31 61.1499C1573.81 73.8006 1570.29 86.4477 1566.78 99.0947C1563.24 111.857 1559.69 124.622 1556.15 137.387C1555.26 140.586 1556.45 143.016 1559.64 144.039C1561.18 144.535 1562.87 144.773 1564.5 144.777C1584.93 144.824 1605.36 144.807 1625.79 144.807C1626.18 144.807 1626.56 144.807 1627.05 144.807C1623.78 156.578 1620.54 168.26 1617.28 179.967C1616.88 179.967 1616.55 179.967 1616.22 179.967C1586.99 179.967 1557.76 180.041 1528.53 179.916C1520.86 179.883 1513.54 178.05 1507.19 173.424C1503.08 170.425 1500.28 166.502 1499.33 161.417C1498.77 158.423 1499.18 155.49 1499.98 152.59C1510.1 116.211 1520.2 79.8276 1530.35 43.4556C1530.99 41.1778 1531.8 38.929 1532.77 36.7705C1536.21 29.0857 1542.13 24.3747 1550.3 22.3663C1555.35 21.1225 1560.48 20.4989 1565.65 20.2078C1568.39 20.0542 1571.13 20.0307 1573.87 20.0307C1601.23 20.018 1628.59 20.0234 1655.95 20.0234C1656.34 20.0234 1656.73 20.0234 1657.24 20.0234Z" fill="white"/>
<path d="M1406.7 179.938C1388.53 179.938 1370.43 179.938 1352.22 179.938C1361.53 146.422 1370.83 112.948 1380.14 79.4625C1419.43 79.4625 1458.66 79.4625 1498 79.4625C1497.41 81.592 1496.85 83.6691 1496.27 85.7444C1493.69 95.0363 1491.1 104.323 1488.54 113.62C1488.33 114.383 1488.02 114.632 1487.2 114.632C1466.83 114.603 1446.46 114.618 1426.09 114.585C1425.12 114.584 1424.77 114.858 1424.52 115.784C1418.69 136.893 1412.83 157.991 1406.97 179.092C1406.89 179.35 1406.81 179.605 1406.7 179.938Z" fill="white"/>
<path d="M1386.92 55.1338C1388.13 50.7698 1389.28 46.5758 1390.45 42.3836C1392.43 35.2647 1394.42 28.1494 1396.38 21.025C1396.59 20.2784 1396.87 20 1397.71 20C1436.31 20.0271 1474.91 20.0235 1513.5 20.0235C1513.8 20.0235 1514.1 20.0235 1514.52 20.0235C1514.11 21.5185 1513.72 22.9286 1513.33 24.3368C1510.57 34.2632 1507.8 44.1842 1505.07 54.1196C1504.84 54.9674 1504.48 55.1536 1503.66 55.1536C1465.12 55.1338 1426.58 55.1356 1388.04 55.1356C1387.72 55.1338 1387.39 55.1338 1386.92 55.1338Z" fill="white"/>
<g clip-path="url(#clip1_13_12785)">
<path d="M1942.45 76.4679C1942.32 93.6942 1942.2 110.92 1942.07 128.221C1937.3 128.221 1932.65 128.221 1928 128.221C1928 126.258 1927.97 124.342 1928.01 122.424C1928.16 114.433 1928.32 106.442 1928.49 98.4508C1928.68 89.6616 1928.88 80.8725 1929.06 72.0834C1929.07 71.5173 1929.19 71.2412 1929.84 71.2432C1937.24 71.2652 1944.64 71.2632 1952.04 71.2693C1952.1 71.2693 1952.17 71.3013 1952.37 71.3553C1954.73 85.9312 1957.09 100.565 1959.46 115.199C1959.55 115.209 1959.65 115.219 1959.74 115.229C1962.1 100.601 1964.47 85.9732 1966.86 71.2512C1967.25 71.2512 1967.57 71.2512 1967.9 71.2512C1974.93 71.2512 1981.97 71.2672 1989 71.2312C1989.89 71.2272 1990.11 71.4953 1990.13 72.3574C1990.29 81.1805 1990.49 90.0037 1990.69 98.8268C1990.9 108.148 1991.13 117.469 1991.34 126.792C1991.35 127.249 1991.35 127.707 1991.35 128.227C1990.96 128.255 1990.67 128.293 1990.38 128.295C1986.28 128.299 1982.18 128.275 1978.08 128.317C1977.25 128.325 1977.09 128.029 1977.09 127.277C1977.07 120.682 1977.01 114.087 1976.96 107.492C1976.89 97.4327 1976.82 87.3753 1976.75 77.318C1976.74 77.036 1976.7 76.754 1976.47 76.4599C1976.05 78.6902 1975.63 80.9205 1975.21 83.1508C1972.46 97.9367 1969.71 112.723 1966.97 127.511C1966.86 128.125 1966.6 128.315 1965.98 128.311C1961.71 128.287 1957.44 128.287 1953.18 128.309C1952.55 128.313 1952.33 128.103 1952.22 127.481C1950.11 116.093 1947.98 104.712 1945.87 93.3281C1944.85 87.8654 1943.84 82.4007 1942.83 76.938C1942.8 76.764 1942.7 76.6019 1942.63 76.4339C1942.57 76.4439 1942.51 76.4559 1942.45 76.4679Z" fill="white"/>
<path d="M2128.97 80.9145C2128.97 84.941 2128.93 88.8335 2128.98 92.724C2129.12 102.747 2129.3 112.769 2129.46 122.79C2129.49 124.188 2129.52 125.586 2129.57 126.982C2129.59 127.475 2129.44 127.709 2128.9 127.707C2124.63 127.691 2120.37 127.697 2116.1 127.689C2115.97 127.689 2115.85 127.629 2115.69 127.589C2115.69 108.832 2115.69 90.0997 2115.69 71.3112C2116.04 71.2892 2116.34 71.2552 2116.63 71.2552C2123.03 71.2512 2129.43 71.2672 2135.83 71.2332C2136.58 71.2292 2136.85 71.4933 2137.04 72.1694C2141.28 86.6672 2145.53 101.159 2149.78 115.651C2149.87 115.951 2149.98 116.241 2150.3 116.497C2150.04 101.471 2149.78 86.4432 2149.53 71.3332C2154.23 71.3332 2158.84 71.3332 2163.53 71.3332C2163.53 90.0597 2163.53 108.794 2163.53 127.699C2163.17 127.699 2162.79 127.699 2162.4 127.699C2156.53 127.699 2150.67 127.665 2144.8 127.729C2143.65 127.741 2143.17 127.439 2142.82 126.288C2138.35 111.446 2133.81 96.6225 2129.28 81.7966C2129.2 81.5266 2129.1 81.2625 2128.97 80.9145Z" fill="white"/>
<path d="M2059.7 71.3012C2064.48 71.3012 2069.16 71.3012 2073.99 71.3012C2073.99 71.7213 2073.99 72.1053 2073.99 72.4914C2073.99 86.2172 2073.99 99.945 2074 113.671C2074.01 114.527 2074.07 115.419 2074.31 116.229C2075.11 118.817 2077.59 120.172 2080.61 119.768C2083.27 119.411 2085.1 117.467 2085.26 114.821C2085.29 114.389 2085.28 113.955 2085.28 113.523C2085.28 99.863 2085.28 86.2032 2085.28 72.5434C2085.28 72.1533 2085.28 71.7613 2085.28 71.3132C2090.1 71.3132 2094.81 71.3132 2099.66 71.3132C2099.66 71.7573 2099.66 72.1453 2099.66 72.5334C2099.66 86.1272 2099.69 99.7189 2099.64 113.313C2099.63 115.127 2099.43 116.981 2099.02 118.749C2097.82 123.98 2094.34 127.183 2089.33 128.673C2083.02 130.551 2076.62 130.593 2070.3 128.771C2063.45 126.794 2059.73 121.9 2059.68 114.779C2059.6 100.521 2059.64 86.2612 2059.64 72.0013C2059.64 71.8053 2059.67 71.6073 2059.7 71.3012Z" fill="white"/>
<path d="M2199.14 104.588C2199.14 101.765 2199.14 99.1169 2199.14 96.3965C2205.82 96.3965 2212.44 96.3965 2219.21 96.3965C2219.21 96.7706 2219.21 97.1206 2219.21 97.4707C2219.21 102.301 2219.3 107.134 2219.17 111.963C2219.11 114.209 2218.9 116.511 2218.32 118.669C2217.08 123.226 2213.87 126.148 2209.52 127.657C2202.39 130.127 2195.17 130.169 2188.08 127.525C2182.38 125.4 2179.31 121.122 2178.87 115.037C2178.74 113.379 2178.67 111.713 2178.67 110.048C2178.65 102.685 2178.61 95.3224 2178.69 87.9594C2178.72 85.7771 2178.92 83.5508 2179.4 81.4266C2180.53 76.4199 2183.7 73.0375 2188.52 71.3953C2195.48 69.019 2202.55 69.007 2209.51 71.4113C2215.5 73.4835 2218.83 78.2902 2219.03 84.609C2219.08 86.1372 2219.04 87.6694 2219.04 89.3036C2218.73 89.3336 2218.45 89.3816 2218.17 89.3836C2214.03 89.3896 2209.9 89.3656 2205.77 89.4056C2204.95 89.4136 2204.74 89.1216 2204.76 88.3695C2204.79 87.2053 2204.77 86.0372 2204.7 84.875C2204.55 82.4327 2203.1 80.7285 2200.71 80.1124C2197.43 79.2663 2194.33 80.5645 2193.38 83.3068C2193.04 84.2929 2192.88 85.3911 2192.87 86.4372C2192.83 95.3324 2192.85 104.228 2192.85 113.123C2192.84 115.391 2193.41 117.405 2195.61 118.481C2197.94 119.626 2200.32 119.568 2202.59 118.243C2203.8 117.537 2204.69 116.431 2204.73 115.037C2204.84 111.59 2204.77 108.136 2204.77 104.586C2202.93 104.588 2201.08 104.588 2199.14 104.588Z" fill="white"/>
<path d="M1819.25 109.636C1822.7 109.636 1826 109.636 1829.29 109.636C1830.73 109.636 1832.16 109.678 1833.59 109.62C1834.37 109.588 1834.56 109.872 1834.54 110.598C1834.49 111.929 1834.52 113.263 1834.52 114.595C1834.54 118.325 1836.67 120.442 1840.39 120.35C1842.47 120.298 1844.43 119.812 1845.41 117.715C1846.48 115.411 1846.69 112.995 1845 110.92C1843.91 109.574 1842.53 108.38 1841.08 107.424C1838.72 105.87 1836.16 104.628 1833.75 103.143C1830.86 101.363 1827.87 99.6849 1825.24 97.5787C1819.2 92.75 1817.74 83.7249 1821.68 77.058C1823.52 73.9496 1826.31 71.9953 1829.68 70.9452C1836.35 68.8689 1843.09 68.8009 1849.76 70.8412C1855.98 72.7454 1859.1 77.198 1859.13 83.6809C1859.14 85.005 1859.13 86.3292 1859.13 87.7094C1854.39 87.7094 1849.78 87.7094 1845.04 87.7094C1845.01 87.4053 1844.95 87.0913 1844.95 86.7773C1844.93 85.9111 1844.96 85.043 1844.93 84.1789C1844.81 80.8805 1842.62 78.9042 1839.33 79.0563C1837.17 79.1563 1835.38 79.8784 1834.59 82.0526C1833.77 84.3129 1833.94 86.5072 1835.79 88.2254C1836.93 89.2816 1838.2 90.2437 1839.54 91.0218C1843.02 93.0441 1846.62 94.8743 1850.09 96.9126C1851.87 97.9527 1853.55 99.1809 1855.14 100.485C1858.45 103.191 1860.46 106.642 1860.41 111.012C1860.37 113.631 1860.35 116.299 1859.85 118.853C1858.85 123.984 1855.46 127.253 1850.63 128.865C1843.46 131.255 1836.19 131.281 1829.05 128.747C1822.77 126.518 1819.38 121.514 1819.25 114.849C1819.22 113.155 1819.25 111.462 1819.25 109.636Z" fill="white"/>
<path d="M1916.32 128.247C1915.92 128.267 1915.62 128.295 1915.33 128.295C1910.93 128.297 1906.53 128.277 1902.13 128.315C1901.34 128.321 1901.05 128.103 1900.94 127.301C1899.94 120.318 1898.89 113.341 1897.86 106.362C1896.56 97.5067 1895.25 88.6495 1893.95 79.7944C1893.77 78.5462 1893.58 77.3 1893.17 76.0279C1892.98 77.21 1892.78 78.3902 1892.6 79.5743C1891.01 90.0697 1889.43 100.565 1887.84 111.062C1887.02 116.491 1886.2 121.92 1885.4 127.353C1885.31 127.949 1885.22 128.317 1884.47 128.313C1879.8 128.281 1875.14 128.297 1870.47 128.293C1870.34 128.293 1870.21 128.263 1869.9 128.223C1873.42 109.232 1876.94 90.2857 1880.47 71.2552C1880.86 71.2552 1881.19 71.2552 1881.51 71.2552C1889.28 71.2552 1897.04 71.2652 1904.81 71.2392C1905.6 71.2372 1905.88 71.4653 1906.02 72.2554C1909.37 90.4837 1912.74 108.706 1916.11 126.93C1916.18 127.319 1916.23 127.711 1916.32 128.247Z" fill="white"/>
<path d="M2005.44 109.614C2010.52 109.614 2015.45 109.614 2020.51 109.614C2020.51 111.178 2020.49 112.699 2020.52 114.219C2020.53 114.979 2020.54 115.767 2020.73 116.493C2021.36 118.853 2023.51 120.232 2026.38 120.144C2028.39 120.084 2030.31 119.65 2031.27 117.645C2032.31 115.473 2032.58 113.145 2031.1 111.09C2030.19 109.822 2028.99 108.64 2027.67 107.802C2024.53 105.8 2021.21 104.086 2018.04 102.133C2015.66 100.671 2013.3 99.1469 2011.11 97.4266C2007.31 94.4503 2005.56 90.4177 2005.79 85.6111C2005.87 83.8289 2006.07 82.0066 2006.55 80.2944C2007.82 75.7258 2010.99 72.8374 2015.39 71.3833C2022.19 69.133 2029.11 69.081 2035.93 71.2512C2041.72 73.0935 2044.67 77.32 2044.81 83.3868C2044.85 84.847 2044.82 86.3072 2044.82 87.8394C2040.16 87.8394 2035.58 87.8394 2030.84 87.8394C2030.84 86.8673 2030.84 85.9151 2030.84 84.965C2030.83 80.7885 2028.13 78.5862 2024.02 79.4043C2020.48 80.1124 2018.84 84.737 2021.22 87.6674C2022.21 88.8775 2023.52 89.9157 2024.87 90.7178C2028.36 92.794 2032.02 94.5823 2035.48 96.7045C2037.79 98.1227 2039.99 99.7829 2042.03 101.575C2044.47 103.713 2045.94 106.52 2046.02 109.804C2046.1 112.619 2046.13 115.487 2045.69 118.251C2044.89 123.24 2041.78 126.614 2037.11 128.323C2029.72 131.025 2022.19 131.055 2014.81 128.341C2008.67 126.084 2005.71 121.35 2005.46 114.893C2005.38 113.173 2005.44 111.444 2005.44 109.614Z" fill="white"/>
</g>
<g clip-path="url(#clip2_13_12785)">
<path d="M2490.53 0C2492.44 0.212175 2494.35 0.398101 2496.26 0.643087C2524.97 4.31568 2552.26 23.792 2559.36 57.5235C2562.13 70.663 2562.11 83.7522 2558.04 96.6796C2550.23 121.41 2529.09 140.044 2503.42 144.452C2465.35 150.99 2430.66 127.554 2422.24 90.8415C2418.65 75.2171 2420.53 60.0433 2427.04 45.4317C2427.42 44.5633 2427.37 44.1368 2426.57 43.6074C2424.96 42.5553 2423.44 41.385 2421.69 40.1361C2423.22 37.7168 2424.61 35.2932 2426.21 33.0118C2434.58 21.0469 2445.15 11.6521 2458.6 5.72216C2465.86 2.51985 2473.47 0.699958 2481.39 0.190301C2481.74 0.168428 2482.09 0.0656211 2482.45 0C2485.14 0 2487.84 0 2490.53 0ZM2464.86 64.2234C2464.67 64.3306 2464.53 64.3896 2464.41 64.4706C2463.93 64.7965 2463.44 65.1093 2462.97 65.4592C2452.47 73.4038 2448.31 84.1 2449.76 96.9749C2451.08 108.642 2456.85 117.866 2466.3 124.726C2475.96 131.734 2486.83 134.215 2498.64 132.887C2511.97 131.387 2523.42 125.92 2532.82 116.364C2548.75 100.179 2553.91 74.9043 2545.87 53.0744C2535.79 25.6732 2507.49 8.77354 2478.57 12.8355C2466.26 14.5657 2455.54 19.5573 2446.56 28.193C2443.62 31.0278 2441.04 34.1711 2438.75 37.7671C2438.97 37.929 2439.19 38.069 2439.39 38.2221C2439.59 38.373 2439.78 38.5327 2440 38.7099C2440.2 38.5677 2440.39 38.4518 2440.56 38.3227C2445.52 34.6108 2450.91 31.7016 2456.74 29.6279C2472.82 23.908 2488.63 24.3389 2503.47 33.0927C2520.85 43.3537 2530.15 58.5756 2529.19 79.209C2528.77 88.3698 2525.74 96.7124 2520.19 104.073C2508.96 118.982 2488.14 123.291 2472.27 114.01C2461.58 107.756 2455.68 94.9428 2457.92 82.7504C2459.1 76.2999 2461.7 70.488 2465.94 65.3805C2465.59 65.013 2465.23 64.6193 2464.86 64.2234ZM2499.62 94.2516C2500.05 93.7157 2500.41 93.2695 2500.76 92.8123C2504.69 87.6479 2505.04 80.6068 2501.63 75.204C2498.16 69.7006 2491.57 66.9095 2485.2 68.2525C2474.25 70.5558 2467.62 81.4467 2470.64 92.1583C2473.64 102.769 2485.17 108.658 2495.6 104.871C2499.35 103.511 2502.38 101.166 2504.8 97.887C2503.05 96.6577 2501.39 95.4918 2499.62 94.2516ZM2516.82 67.1785C2516.76 66.9182 2516.71 66.6382 2516.63 66.367C2515.13 61.1742 2512.52 56.5807 2508.91 52.5888C2494.24 36.3978 2470.34 33.1255 2452.26 45.4361C2437.45 55.5198 2430.98 69.834 2433.3 87.8076C2433.69 90.8305 2434.62 93.7463 2435.82 96.544C2437.5 96.1765 2437.51 96.1743 2437.41 94.5775C2436.93 86.6702 2438.44 79.1456 2441.87 72.0257C2451.33 52.3503 2471.13 45.1451 2489.58 50.0755C2499.73 52.79 2507.84 58.7112 2514.42 66.8088C2515.38 67.9988 2515.38 68.0032 2516.82 67.1785Z" fill="white"/>
<path d="M2599.79 167.588C2596.12 167.588 2592.45 167.588 2588.68 167.588C2588.68 178.12 2588.68 188.584 2588.68 199.123C2585.68 199.123 2582.79 199.123 2579.77 199.123C2579.77 188.637 2579.77 178.179 2579.77 167.583C2575.93 167.583 2572.21 167.583 2568.43 167.583C2568.43 164.772 2568.43 162.099 2568.43 159.284C2578.92 159.284 2589.36 159.284 2599.79 159.284C2599.79 162.054 2599.79 164.821 2599.79 167.588Z" fill="white"/>
<path d="M2499.71 165.536C2499.29 165.09 2498.9 164.667 2498.46 164.195C2500.3 162.242 2502.52 160.979 2504.95 160.054C2513.43 156.823 2523.07 158.873 2528.82 165.109C2537.71 174.756 2535.43 193.403 2521.45 198.421C2513.52 201.269 2505.85 200.389 2499.3 194.783C2491.03 187.705 2490.99 173.662 2498.97 166.238C2499.21 166.015 2499.45 165.787 2499.71 165.536ZM2505.9 171.722C2505.25 172.441 2504.61 173.043 2504.09 173.736C2501.16 177.684 2501.38 183.855 2504.55 187.654C2507.79 191.537 2514.02 192.832 2518.69 190.496C2522.95 188.368 2524.8 184.682 2525.14 180.091C2525.78 171.44 2519.27 165.569 2510.78 167.159C2508.43 167.598 2506.34 168.598 2504.59 170.333C2505.07 170.84 2505.46 171.26 2505.9 171.722Z" fill="white"/>
<path d="M2418.86 199.132C2418.86 185.821 2418.86 172.625 2418.86 159.37C2419.19 159.343 2419.47 159.304 2419.75 159.304C2424.01 159.3 2428.27 159.286 2432.53 159.306C2435.41 159.319 2438.15 159.888 2440.7 161.31C2447.43 165.066 2445.93 175.162 2440.42 177.26C2440.32 177.297 2440.24 177.372 2440.04 177.492C2442.41 178.406 2444.26 179.736 2445.52 181.797C2449.23 187.889 2446.2 195.77 2439.11 198.099C2437.14 198.749 2434.99 199.07 2432.91 199.143C2428.44 199.298 2423.96 199.193 2419.48 199.191C2419.31 199.193 2419.13 199.16 2418.86 199.132ZM2427.68 181.773C2427.68 184.953 2427.68 188.195 2427.68 191.48C2428.08 191.498 2428.4 191.53 2428.72 191.526C2430.43 191.502 2432.14 191.559 2433.84 191.415C2436.54 191.187 2438.08 189.463 2438.2 186.753C2438.31 184.08 2436.86 182.118 2434.17 181.821C2432.06 181.587 2429.91 181.773 2427.68 181.773ZM2427.69 166.931C2427.69 169.716 2427.69 172.483 2427.69 175.302C2427.98 175.322 2428.23 175.357 2428.48 175.355C2429.89 175.342 2431.32 175.401 2432.73 175.283C2435.23 175.073 2436.66 173.465 2436.63 171.052C2436.6 168.688 2435.06 167.076 2432.57 166.947C2430.98 166.866 2429.37 166.931 2427.69 166.931Z" fill="white"/>
<path d="M2381.38 159.024C2384.25 159.024 2387.05 159.024 2390.02 159.024C2390.02 159.472 2390.02 159.895 2390.02 160.315C2390.02 167.633 2390.01 174.95 2390.03 182.269C2390.03 183.247 2390.1 184.242 2390.29 185.196C2391.1 189.107 2393.98 191.331 2398.06 191.27C2402.07 191.211 2404.8 188.928 2405.5 184.964C2405.69 183.897 2405.75 182.794 2405.75 181.707C2405.77 174.572 2405.76 167.434 2405.76 160.299C2405.76 159.908 2405.76 159.518 2405.76 159.061C2408.7 159.061 2411.53 159.061 2414.51 159.061C2414.51 159.416 2414.51 159.763 2414.51 160.113C2414.51 167.614 2414.5 175.114 2414.52 182.615C2414.52 185.078 2414.22 187.49 2413.32 189.785C2410.94 195.848 2406.28 198.832 2399.97 199.475C2397.31 199.746 2394.66 199.556 2392.08 198.775C2385.73 196.855 2381.5 191.559 2381.34 184.656C2381.14 176.25 2381.28 167.835 2381.28 159.424C2381.28 159.319 2381.33 159.219 2381.38 159.024Z" fill="white"/>
<path d="M2490.17 165.895C2487.81 167.546 2485.55 169.13 2483.24 170.748C2482.92 170.228 2482.65 169.757 2482.34 169.32C2480.6 166.877 2478.27 165.744 2475.26 166.279C2473.79 166.544 2472.55 167.238 2472.17 168.821C2471.77 170.449 2472.48 171.754 2473.83 172.533C2475.37 173.413 2477.03 174.08 2478.66 174.777C2480.37 175.504 2482.15 176.066 2483.82 176.862C2488.78 179.233 2491.01 182.809 2490.69 187.698C2490.32 193.315 2487.35 197.384 2482.26 198.998C2477.83 200.398 2473.41 200.214 2469.13 198.386C2466.11 197.093 2463.89 194.906 2462.5 191.898C2462.27 191.393 2462.15 191.021 2462.73 190.612C2464.84 189.122 2466.91 187.578 2469.09 185.986C2469.41 186.548 2469.7 187.075 2470.01 187.584C2471.87 190.623 2474.93 192.134 2478.2 191.64C2479.97 191.373 2481.38 190.201 2481.76 188.672C2482.19 186.937 2481.67 185.388 2479.99 184.343C2478.64 183.503 2477.15 182.895 2475.69 182.243C2473.81 181.396 2471.83 180.729 2470 179.765C2465.3 177.282 2463.24 173.329 2463.9 168.373C2464.48 163.954 2467.9 160.273 2472.68 159.151C2477.14 158.101 2481.5 158.427 2485.55 160.815C2487.56 162.003 2489.12 163.648 2490.17 165.895Z" fill="white"/>
<path d="M2563.42 183.374C2557.7 183.374 2552.08 183.374 2546.33 183.374C2546.33 188.658 2546.33 193.849 2546.33 199.118C2543.36 199.118 2540.51 199.118 2537.59 199.118C2537.59 185.883 2537.59 172.682 2537.59 159.391C2546.72 159.391 2555.87 159.391 2565.08 159.391C2565.08 162.095 2565.08 164.77 2565.08 167.539C2558.85 167.539 2552.67 167.539 2546.4 167.539C2546.4 170.595 2546.4 173.557 2546.4 176.665C2552.05 176.665 2557.7 176.665 2563.43 176.665C2563.42 178.938 2563.42 181.066 2563.42 183.374Z" fill="white"/>
<path d="M2459.06 159.389C2459.06 172.645 2459.06 185.848 2459.06 199.123C2456.16 199.123 2453.3 199.123 2450.38 199.123C2450.38 185.878 2450.38 172.678 2450.38 159.389C2453.22 159.389 2456.07 159.389 2459.06 159.389Z" fill="white"/>
</g>
<path d="M2806.42 129.931V100.246L2802.69 98.1298V90.4196H2819.59V98.134L2816.05 100.25V160.797L2806.98 158.059L2793.86 119.353V144.867L2798.03 148.04V155.88L2779.88 151.275V144.554L2784.04 142.935V100.188L2779.82 98.134V90.4196H2793.55L2806.42 129.931ZM2837.55 157.065L2841.16 161.419V169.134L2823.13 162.413V155.88L2827.11 154.26V100.313L2823.13 98.3219V90.5448H2854.39V106.228H2847.49L2845.38 99.8205H2837.42V117.929H2843.39L2845.75 114.506H2850.54V130.499H2845.75L2843.51 127.264H2837.42V157.07L2837.55 157.065ZM2857.44 159.804V152.089L2861.92 148.416V100.25L2858.13 98.2593V90.4822H2876.15V98.2593L2872.6 100.25V145.427L2880.37 143.31L2881.86 131.488H2889.2V151.275L2857.44 159.804Z" fill="white"/>
<path fill-rule="evenodd" clip-rule="evenodd" d="M2902.87 27.5684C2902.87 27.5684 2888.27 38.9564 2867.76 33.7926C2843.83 27.8189 2834.51 9.83514 2834.51 9.83514C2834.51 9.83514 2825.18 27.8189 2801.26 33.7926C2780.75 38.9564 2766.14 27.5684 2766.14 27.5684V146.733C2766.14 150.779 2767.82 167.952 2799.89 172.62C2812.57 174.423 2822.01 178.531 2828.79 185.064C2831.21 187.431 2833.07 189.793 2834.51 191.972C2835.93 189.793 2837.8 187.368 2840.23 185.064C2847 178.531 2856.45 174.423 2869.13 172.62C2901.19 167.952 2902.87 150.779 2902.87 146.733V27.5684ZM2834.51 179.904C2834.51 179.904 2843.83 168.453 2867.94 164.721C2895.05 160.512 2894.82 147.938 2894.8 146.852C2894.79 146.83 2894.79 146.813 2894.79 146.8V84.3206H2774.16V146.733C2774.16 146.747 2774.16 146.767 2774.16 146.791C2774.14 147.945 2773.92 160.508 2801.01 164.655C2825.18 168.391 2834.51 179.904 2834.51 179.904ZM2771.86 67.393L2777.33 71.5007L2775.22 77.9085L2780.62 74.1139L2786.03 77.9085L2784.04 71.5007L2789.51 67.393H2782.86L2780.68 61.0436L2778.51 67.393H2771.86ZM2795.54 67.393L2801.01 71.5007L2798.89 77.9085L2804.3 74.1139L2809.71 77.9085L2807.72 71.5007L2813.19 67.393H2806.54L2804.36 61.0436L2802.19 67.393H2795.54ZM2771.86 46.0488L2777.33 50.1565L2775.22 56.5644L2780.62 52.7697L2786.03 56.5644L2784.04 50.1565L2789.51 46.0488H2782.86L2780.68 39.6994L2778.51 46.0488H2771.86ZM2795.54 46.0488L2801.01 50.1565L2798.89 56.5644L2804.3 52.7697L2809.71 56.5644L2807.72 50.1565L2813.19 46.0488H2806.54L2804.36 39.6994L2802.19 46.0488H2795.54ZM2888.27 74.1765L2893.67 77.9712L2891.62 71.5633L2897.09 67.4556H2890.44L2888.27 61.1062L2886.09 67.4556H2879.38L2884.85 71.5633L2882.86 77.9712L2888.27 74.1765ZM2864.65 74.1765L2870.06 77.9712L2867.94 71.5633L2873.41 67.4556H2866.76L2864.59 61.1062L2862.41 67.4556H2855.76L2861.23 71.5633L2859.24 77.9712L2864.65 74.1765ZM2888.27 52.7697L2893.67 56.5644L2891.62 50.1565L2897.09 46.0488H2890.44L2888.27 39.6994L2886.09 46.0488H2879.38L2884.85 50.1565L2882.86 56.5644L2888.27 52.7697ZM2864.65 52.7697L2870.06 56.5644L2867.94 50.1565L2873.41 46.0488H2866.76L2864.59 39.6994L2862.41 46.0488H2855.76L2861.23 50.1565L2859.24 56.5644L2864.65 52.7697ZM2850.55 33.7786C2850.29 33.377 2850 32.9316 2849.55 32.9826C2849.55 32.9826 2846.75 34.4729 2842.78 38.3385C2843.65 38.8395 2844.64 39.5241 2845.26 40.0208C2844.97 40.2848 2844.7 40.5478 2844.42 40.8039C2844.12 41.0946 2843.82 41.3764 2843.52 41.6405C2840.97 39.5282 2838.3 38.4679 2836.19 37.9712C2836.87 37.4744 2837.62 36.9735 2838.3 36.5393C2839.42 36.8524 2840.48 37.2865 2840.48 37.2865C2844.95 33.8635 2848.8 32.4316 2848.8 32.4316C2848.8 32.4316 2848.37 32.1811 2847.19 32.2438C2829.66 32.4901 2813.57 45.5604 2816.61 67.9607C2816.92 70.3235 2817.85 74.6817 2819.04 76.5477C2819.41 72.8157 2820.83 64.6003 2825 55.7629C2823.57 55.2661 2822.39 55.0156 2822.39 55.0156C2822.83 54.1432 2823.39 52.9618 2823.39 52.9618C2826.43 53.5212 2829.16 54.8278 2831.53 56.6938C2831.15 57.3282 2830.85 57.7896 2830.6 58.1759C2830.49 58.359 2830.38 58.5253 2830.28 58.685C2829.5 58.0785 2828.65 57.5315 2827.8 56.986L2827.74 56.9442C2823.07 65.097 2820.9 72.8115 2820.03 76.8566C2820.09 77.1029 2820.59 77.2281 2821.02 77.1655C2840.23 74.6733 2849.18 64.905 2851.91 54.2642C2853.71 47.2928 2853.09 40.0125 2850.73 34.0388C2850.67 33.9585 2850.61 33.8697 2850.55 33.7786ZM2834.44 52.0225C2833.95 52.7697 2833.45 53.517 2833.02 54.139C2830.53 52.0851 2827.61 50.7785 2824.75 50.2191C2824.75 50.2191 2825.62 48.7873 2826.12 48.04C2829.6 48.7247 2832.46 50.3444 2834.44 52.0225ZM2837.74 47.727C2837.18 48.4116 2836.68 49.0336 2836.18 49.7182C2833.88 47.7896 2831.02 46.2993 2827.86 45.6731C2828.35 45.0511 2828.91 44.3665 2829.47 43.7445C2831.9 44.1786 2835 45.4853 2837.74 47.727ZM2841.47 43.686C2840.78 44.308 2840.22 44.8674 2839.72 45.4894C2837.3 43.4982 2834.57 42.1916 2831.71 41.5696C2832.28 40.9956 2832.9 40.5096 2833.45 40.0747C2833.56 39.9909 2833.66 39.9091 2833.76 39.8288C2837.36 40.7013 2839.79 42.3168 2841.47 43.686Z" fill="white"/>
<path d="M3104.28 20.1018C3100.61 22.5208 3100.61 22.5208 3099.71 29.3419C3097.96 29.8867 3097.68 30.2391 3098 32.1096C3098.16 33.0322 3098.67 33.893 3099.01 34.7901C3099.09 35.0153 3099.17 35.2732 3099.15 35.5057C3099 36.8169 3098.85 38.1281 3098.63 39.4247C3098.44 40.5434 3097.76 41.259 3096.61 41.4551C3096.28 41.5096 3095.96 41.5677 3095.63 41.6149C3093.09 41.9963 3090.55 42.3668 3088 42.7554C3085.75 43.1005 3083.84 44.1574 3082.61 46.0352C3080.9 48.6649 3079.26 51.3708 3077.87 54.1821C3076.2 57.5564 3074.78 61.0577 3073.35 64.5446C3072.19 67.3849 3071.12 70.2725 3070.13 73.1782C3069.9 73.8428 3070.05 74.6855 3070.18 75.4119C3070.35 76.2691 3070.74 77.0754 3070.94 77.929C3071.14 78.7535 3071.62 79.2402 3072.44 79.3092C3073.89 79.4327 3075.35 79.5017 3076.88 79.5961C3077.17 80.4533 3077.07 81.1725 3076.29 81.8009C3075.08 82.7888 3074.4 84.0891 3074.09 85.6219C3073.44 88.8218 3072.51 92.0507 3073.47 95.2833C3074.18 97.6878 3075.32 99.9688 3076.32 102.282C3077.47 104.934 3078.65 107.571 3079.87 110.186C3080.03 110.531 3080.54 110.938 3080.88 110.938C3082.78 110.934 3083.77 111.864 3084.7 113.517C3087.79 119.019 3091.2 124.369 3095.44 129.051C3100.78 134.943 3106.42 140.565 3113.27 144.778C3113.65 145.011 3113.99 145.407 3114.18 145.806C3114.65 146.758 3115.03 147.75 3115.4 148.748C3115.5 149.014 3115.52 149.435 3115.38 149.642C3114.75 150.528 3114.94 151.4 3115.36 152.242C3116.04 153.583 3116.83 154.869 3117.49 156.216C3118.08 157.433 3118.6 158.686 3119.06 159.957C3119.22 160.4 3119.21 160.985 3119.07 161.443C3118.8 162.278 3119.02 162.914 3119.48 163.6C3119.77 164.047 3120.06 164.643 3120.03 165.144C3119.84 167.846 3119.53 170.541 3119.29 173.24C3119.21 174.115 3119.16 174.998 3119.19 175.873C3119.25 177.497 3119.89 178.852 3121.44 179.912C3120.99 179.952 3120.73 179.992 3120.47 179.992C3107.78 179.996 3095.09 180.01 3082.4 179.988C3075.27 179.977 3069.52 174.398 3069.24 167.276C3069.23 166.949 3069.22 166.618 3069.22 166.288C3069.22 122.128 3069.22 77.969 3069.22 33.8095C3069.22 27.475 3072.81 22.4409 3078.61 20.6902C3079.69 20.3669 3080.84 20.1308 3081.95 20.1236C3089.33 20.0764 3096.7 20.1018 3104.28 20.1018ZM3077.51 147.495C3077.51 155.631 3077.51 163.64 3077.51 171.667C3077.83 171.7 3078.04 171.743 3078.26 171.74C3080.82 171.707 3080.43 172.081 3080.44 169.637C3080.47 164.806 3080.45 159.975 3080.45 155.355C3080.49 155.54 3080.58 155.962 3080.66 156.383C3081.55 161.21 3082.43 166.037 3083.35 170.857C3083.41 171.177 3083.74 171.678 3083.97 171.696C3085.2 171.78 3086.43 171.736 3087.7 171.736C3087.7 163.571 3087.7 155.562 3087.7 147.499C3086.72 147.499 3085.81 147.499 3084.64 147.499C3084.82 153.223 3085 158.9 3085.18 164.635C3084.14 158.9 3083.1 153.216 3082.06 147.499C3080.51 147.495 3079.06 147.495 3077.51 147.495ZM3089.89 171.678C3091.88 171.678 3093.78 171.816 3095.66 171.638C3097.34 171.482 3098.61 170.392 3098.79 168.7C3099.12 165.66 3099.82 162.514 3097.93 159.983C3098.33 158.878 3098.88 157.956 3098.96 156.993C3099.11 155.101 3099.08 153.18 3098.98 151.28C3098.87 149.264 3097.72 147.797 3095.83 147.593C3093.89 147.383 3091.91 147.546 3089.89 147.546C3089.89 155.57 3089.89 163.553 3089.89 171.678ZM3110.41 171.678C3109.47 163.538 3108.54 155.548 3107.59 147.437C3106.31 147.437 3105.11 147.492 3103.91 147.419C3103 147.361 3102.75 147.71 3102.65 148.581C3101.98 154.436 3101.25 160.284 3100.55 166.132C3100.32 167.966 3100.13 169.8 3099.91 171.74C3100.65 171.74 3101.19 171.74 3101.74 171.74C3103.35 171.74 3103.33 171.74 3103.44 170.174C3103.51 169.092 3103.64 168.013 3103.74 166.945C3104.69 166.945 3105.52 166.945 3106.44 166.945C3106.59 168.547 3106.73 170.098 3106.89 171.678C3108.08 171.678 3109.16 171.678 3110.41 171.678Z" fill="white"/>
<path d="M3278.22 179.945C3279.08 177.598 3279.85 175.441 3280.64 173.287C3289.15 150.19 3297.66 127.097 3306.13 103.99C3306.48 103.06 3306.9 102.755 3307.91 102.758C3322.84 102.798 3337.76 102.787 3352.69 102.787C3353.09 102.787 3353.49 102.787 3354.07 102.787C3353.85 103.383 3353.68 103.881 3353.49 104.375C3344.08 129.2 3334.65 154.022 3325.25 178.855C3324.95 179.658 3324.58 179.97 3323.69 179.97C3308.94 179.937 3294.2 179.948 3279.46 179.948C3279.1 179.945 3278.75 179.945 3278.22 179.945ZM3332.15 117.37C3331.56 117.37 3331.16 117.37 3330.76 117.37C3326.84 117.37 3322.92 117.407 3319 117.345C3318.03 117.33 3317.61 117.614 3317.27 118.525C3312.56 131.281 3307.79 144.019 3303.05 156.764C3302.01 159.565 3300.98 162.372 3299.91 165.267C3300.34 165.289 3300.66 165.322 3300.97 165.322C3305.04 165.325 3309.11 165.3 3313.18 165.347C3313.95 165.354 3314.23 165.075 3314.49 164.399C3318.8 152.856 3323.13 141.324 3327.47 129.792C3329 125.721 3330.53 121.656 3332.15 117.37Z" fill="white"/>
<path d="M3272.48 20.1017C3271.78 22.2882 3271.1 24.4058 3270.41 26.516C3262.93 49.4602 3255.44 72.4044 3247.97 95.3559C3247.73 96.0932 3247.42 96.3802 3246.6 96.3765C3231.97 96.3475 3217.33 96.3584 3202.7 96.3547C3202.38 96.3547 3202.05 96.3257 3201.57 96.3003C3202.21 94.2626 3202.82 92.3194 3203.43 90.3799C3209.64 70.6356 3215.85 50.8913 3222.05 31.147C3223.13 27.7292 3224.22 24.315 3225.28 20.8899C3225.46 20.2942 3225.68 20 3226.39 20C3241.47 20.0218 3256.55 20.0182 3271.62 20.0218C3271.87 20.0218 3272.12 20.0654 3272.48 20.1017ZM3222.21 81.8879C3226.6 81.8879 3230.81 81.8444 3235.03 81.9206C3236.09 81.9388 3236.45 81.5647 3236.75 80.6203C3241.17 66.7964 3245.62 52.987 3250.07 39.1704C3250.56 37.6631 3251.02 36.1521 3251.53 34.5576C3251.04 34.5358 3250.71 34.5067 3250.39 34.5067C3246.39 34.5031 3242.39 34.5322 3238.4 34.485C3237.55 34.4741 3237.2 34.7501 3236.95 35.5492C3233.39 46.8415 3229.79 58.1229 3226.19 69.4043C3224.88 73.505 3223.57 77.6093 3222.21 81.8879Z" fill="white"/>
<path d="M3225.12 179.876C3225.91 177.642 3226.66 175.514 3227.41 173.389C3235.66 150.158 3243.91 126.93 3252.15 103.699C3252.32 103.22 3252.39 102.769 3253.12 102.776C3258.22 102.809 3263.31 102.795 3268.41 102.798C3268.55 102.798 3268.68 102.845 3268.92 102.889C3265.15 113.397 3261.39 123.85 3257.6 134.423C3258.06 134.452 3258.4 134.492 3258.75 134.492C3262.68 134.496 3266.6 134.467 3270.53 134.518C3271.37 134.529 3271.73 134.253 3272.01 133.472C3275.5 123.73 3279.06 114.011 3282.53 104.262C3282.94 103.103 3283.46 102.733 3284.69 102.758C3289.21 102.849 3293.72 102.795 3298.23 102.795C3298.62 102.795 3299.02 102.795 3299.57 102.795C3298.74 105.086 3297.96 107.244 3297.17 109.398C3288.68 132.578 3280.18 155.758 3271.69 178.939C3271.48 179.494 3271.35 179.977 3270.52 179.97C3265.64 179.927 3260.77 179.948 3255.89 179.945C3255.71 179.945 3255.53 179.905 3255.18 179.865C3258.89 169.6 3262.58 159.42 3266.31 149.119C3265.82 149.093 3265.47 149.057 3265.12 149.057C3261.23 149.053 3257.34 149.083 3253.46 149.032C3252.63 149.021 3252.23 149.268 3251.95 150.056C3248.53 159.67 3245.06 169.266 3241.65 178.884C3241.37 179.658 3241.06 179.977 3240.2 179.97C3235.55 179.927 3230.89 179.952 3226.23 179.948C3225.91 179.941 3225.59 179.905 3225.12 179.876Z" fill="white"/>
<path d="M3173.06 179.945C3174.3 176.12 3175.47 172.51 3176.63 168.896C3177.91 164.89 3179.2 160.883 3180.46 156.87C3180.64 156.289 3180.86 155.947 3181.58 155.955C3186.35 155.987 3191.12 155.973 3195.89 155.976C3196.03 155.976 3196.18 156.009 3196.48 156.045C3195.43 159.114 3194.39 162.126 3193.32 165.242C3193.74 165.275 3194.05 165.318 3194.36 165.318C3198.4 165.322 3202.43 165.296 3206.47 165.34C3207.26 165.347 3207.61 165.089 3207.89 164.359C3209.24 160.803 3210.64 157.262 3212.08 153.735C3212.37 153.005 3212.28 152.595 3211.66 152.075C3204.28 145.93 3196.94 139.737 3189.55 133.602C3188.67 132.876 3188.52 132.306 3188.9 131.216C3192.06 122.016 3195.14 112.79 3198.24 103.572C3198.41 103.089 3198.56 102.769 3199.19 102.769C3214.31 102.795 3229.42 102.795 3244.53 102.802C3244.57 102.802 3244.6 102.824 3244.76 102.882C3244.66 103.23 3244.58 103.597 3244.46 103.95C3242.04 110.814 3239.59 117.672 3237.21 124.547C3236.91 125.408 3236.54 125.721 3235.6 125.71C3230.94 125.655 3226.28 125.684 3221.41 125.684C3222.36 122.946 3223.26 120.312 3224.2 117.596C3223.86 117.563 3223.58 117.512 3223.31 117.512C3218.98 117.508 3214.65 117.527 3210.32 117.49C3209.63 117.487 3209.29 117.675 3209.07 118.358C3208.13 121.322 3207.16 124.275 3206.16 127.221C3205.96 127.809 3205.97 128.176 3206.51 128.626C3213.78 134.786 3221.02 140.986 3228.3 147.139C3228.97 147.706 3229.12 148.153 3228.82 148.981C3225.37 158.853 3221.95 168.736 3218.57 178.63C3218.23 179.614 3217.8 179.963 3216.73 179.959C3202.65 179.919 3188.56 179.934 3174.47 179.934C3174.07 179.945 3173.67 179.945 3173.06 179.945Z" fill="white"/>
<path d="M3324.8 20.0763C3322.78 26.0185 3320.81 31.8336 3318.84 37.645C3314.53 50.3538 3310.22 63.0554 3305.94 75.7751C3305.65 76.6396 3305.28 76.9447 3304.34 76.941C3295.65 76.9011 3286.96 76.9301 3278.27 76.8974C3277.4 76.8938 3277.02 77.1299 3276.74 77.998C3274.89 83.7404 3272.94 89.4501 3271.08 95.1889C3270.78 96.126 3270.35 96.3947 3269.38 96.3839C3264.95 96.3257 3260.51 96.3584 3256.07 96.3584C3255.67 96.3584 3255.28 96.3584 3254.7 96.3584C3255.23 94.6913 3255.7 93.1694 3256.19 91.6584C3262.76 71.6127 3269.34 51.5706 3275.93 31.5357C3276.08 31.089 3276.42 30.6168 3276.79 30.348C3281.45 27.0355 3286.13 23.7484 3290.82 20.4831C3291.18 20.2289 3291.68 20.0436 3292.11 20.04C3302.79 20.0146 3313.46 20.0218 3324.13 20.0255C3324.31 20.0218 3324.49 20.0509 3324.8 20.0763ZM3281.95 62.3326C3285.89 62.3326 3289.63 62.3035 3293.36 62.3544C3294.18 62.3653 3294.46 62.0638 3294.7 61.3265C3297.2 53.768 3299.75 46.2241 3302.28 38.6729C3302.73 37.3362 3303.16 35.9923 3303.64 34.5104C3303.09 34.5104 3302.7 34.5104 3302.3 34.5104C3299.04 34.5104 3295.78 34.5649 3292.52 34.4777C3291.42 34.4487 3291.02 34.8555 3290.71 35.8253C3288.74 41.8728 3286.72 47.8985 3284.73 53.9315C3283.83 56.6592 3282.93 59.3906 3281.95 62.3326Z" fill="white"/>
<path d="M3346.43 179.945C3354.49 159.013 3362.47 138.284 3370.51 117.407C3365.33 117.407 3360.37 117.407 3355.2 117.407C3355.7 116.052 3356.14 114.842 3356.6 113.636C3357.88 110.288 3359.17 106.946 3360.43 103.59C3360.63 103.06 3360.83 102.769 3361.49 102.773C3376.71 102.798 3391.93 102.795 3407.15 102.798C3407.22 102.798 3407.3 102.82 3407.48 102.853C3407.39 103.15 3407.33 103.448 3407.22 103.724C3405.55 107.981 3403.86 112.234 3402.23 116.502C3401.95 117.221 3401.56 117.388 3400.85 117.385C3396.59 117.352 3392.34 117.392 3388.08 117.348C3387.29 117.341 3386.94 117.61 3386.66 118.333C3378.9 138.349 3371.1 158.352 3363.36 178.376C3362.88 179.6 3362.31 180.003 3361.01 179.974C3356.61 179.883 3352.2 179.941 3347.8 179.941C3347.41 179.945 3347.02 179.945 3346.43 179.945Z" fill="white"/>
<path d="M3164.55 96.3584C3170.86 75.6879 3177.12 55.1845 3183.42 34.5394C3178.31 34.5394 3173.37 34.5394 3168.26 34.5394C3168.64 33.2972 3168.97 32.1967 3169.3 31.0925C3170.31 27.7292 3171.31 24.3695 3172.31 21.0061C3172.49 20.425 3172.64 20 3173.45 20C3188.41 20.0291 3203.37 20.0218 3218.34 20.0254C3218.48 20.0254 3218.62 20.0472 3218.92 20.0726C3218.42 21.6708 3217.93 23.2144 3217.45 24.7581C3216.54 27.6529 3215.61 30.5405 3214.76 33.4534C3214.53 34.2598 3214.18 34.5394 3213.33 34.5285C3209.26 34.4813 3205.19 34.5431 3201.12 34.4813C3200.1 34.4668 3199.67 34.7537 3199.36 35.7453C3193.37 55.2426 3187.33 74.729 3181.31 94.2154C3180.64 96.3584 3180.64 96.3584 3178.38 96.3584C3173.83 96.3584 3169.29 96.3584 3164.55 96.3584Z" fill="white"/>
<path d="M3135.07 107.157C3135.07 107.622 3135.07 107.93 3135.07 108.243C3135.07 127.787 3135.08 147.332 3135.07 166.876C3135.06 173.254 3130.64 178.561 3124.42 179.738C3124.42 179.679 3124.4 179.592 3124.42 179.574C3127.04 177.58 3127.51 174.892 3126.83 171.889C3126.52 170.497 3126.04 169.15 3125.64 167.777C3125.33 166.745 3124.74 165.768 3125.19 164.61C3125.28 164.352 3125.12 163.96 3125.01 163.662C3123.47 159.779 3122.91 155.824 3124.26 151.774C3124.97 149.631 3124.65 147.633 3123.25 145.981C3121.39 143.776 3120.97 141.168 3120.55 138.48C3120.11 135.585 3119.66 132.68 3118.98 129.836C3118.55 128.041 3117.96 126.174 3116.98 124.645C3114.17 120.309 3112.86 115.63 3112.37 110.509C3111.96 106.27 3110.83 102.097 3109.99 97.902C3109.87 97.2845 3109.61 96.736 3110.25 96.2167C3110.41 96.0823 3110.4 95.5956 3110.32 95.3159C3109.09 90.9428 3107.86 86.5733 3106.59 82.2148C3106.21 80.9254 3105.56 79.7958 3104.33 79.0802C3104.1 78.9531 3103.9 78.5717 3103.91 78.3139C3103.92 77.8126 3104.03 77.2932 3104.21 76.8211C3105.23 74.1514 3106.22 71.4709 3107.36 68.8485C3107.72 68.0313 3108.39 67.2685 3109.1 66.7128C3110.21 65.8447 3111.48 65.1728 3112.83 64.3229C3113.78 69.0047 3114.33 73.5848 3115.7 77.8998C3117.08 82.222 3119.28 86.2791 3121.14 90.4888C3115.2 92.599 3111.9 96.6707 3112.25 103.07C3112.53 108.174 3116.13 112.311 3120.87 113.604C3126.34 115.086 3130.56 113.201 3135.07 107.157Z" fill="white"/>
<path d="M3134.82 97.0376C3134.39 96.1622 3133.97 95.2869 3133.54 94.4152C3133.46 94.2517 3133.41 94.0011 3133.28 93.943C3131.72 93.2638 3130.95 91.4368 3129.16 91.1245C3128.4 90.9901 3128 90.5833 3127.88 89.8496C3127.72 88.9089 3127.61 87.9572 3127.38 87.0383C3126.83 84.8481 3126.54 82.5127 3125.55 80.5295C3123.95 77.3187 3123.26 73.9408 3122.49 70.5012C3121.8 67.4103 3122.16 64.2866 3121.64 61.2284C3121.32 59.2888 3120.91 57.3384 3120.29 55.4751C3119.47 53.0452 3117.81 51.2 3115.71 49.7181C3114.33 48.7484 3112.86 47.9493 3111.72 46.5618C3110.95 45.6066 3109.53 45.1562 3108.37 44.5351C3107.24 43.9285 3107.15 42.9442 3108.18 42.1742C3108.53 41.9127 3108.91 41.633 3109.12 41.2698C3110.34 39.214 3111.84 37.3689 3113.25 35.4547C3113.92 34.5431 3114.72 33.537 3113.77 32.2657C3113.65 32.1168 3113.9 31.6592 3114.03 31.3722C3114.83 29.647 3115.35 27.8672 3115.08 25.9458C3114.91 24.7073 3114.5 23.5922 3113.25 23.0074C3113.12 22.9457 3113.01 22.8476 3112.9 22.7495C3111.94 21.8451 3110.98 20.9371 3110.07 20.0799C3112.08 20.0799 3114.3 20.0545 3116.52 20.0872C3119.05 20.1235 3121.6 19.9964 3124.09 20.3269C3130.17 21.1405 3135.03 26.6904 3135.04 32.8214C3135.09 54.0949 3135.06 75.3683 3135.06 96.6417C3135.06 96.7506 3135.04 96.8596 3135.02 96.9686C3134.96 96.9904 3134.89 97.0158 3134.82 97.0376Z" fill="white"/>
<path d="M3093.27 158.341C3093.27 155.802 3093.27 153.325 3093.27 150.862C3095.02 150.325 3095.64 150.757 3095.66 152.489C3095.67 153.841 3095.67 155.192 3095.66 156.543C3095.64 158.381 3095.31 158.639 3093.27 158.341Z" fill="white"/>
<path d="M3093.24 168.442C3093.24 166.241 3093.22 164.091 3093.27 161.944C3093.28 161.722 3093.74 161.37 3094.03 161.334C3094.68 161.25 3095.53 161.276 3095.57 162.14C3095.67 163.96 3095.66 165.794 3095.58 167.617C3095.54 168.431 3094.9 168.623 3093.24 168.442Z" fill="white"/>
<path d="M3105.07 151C3105.46 155.261 3105.84 159.518 3106.23 163.869C3105.45 163.869 3104.78 163.869 3103.97 163.869C3104.31 159.565 3104.65 155.272 3104.99 150.982C3105.02 150.986 3105.05 150.993 3105.07 151Z" fill="white"/>
<defs>
<clipPath id="clip0_13_12785">
<rect width="352.698" height="200" fill="white"/>
</clipPath>
<clipPath id="clip1_13_12785">
<rect width="400" height="61.302" fill="white" transform="translate(1819.24 69.349)"/>
</clipPath>
<clipPath id="clip2_13_12785">
<rect width="218.553" height="200" fill="white" transform="translate(2381.24)"/>
</clipPath>
</defs>
</svg>
