<svg width="47" height="47" viewBox="0 0 64 64" fill="none" xmlns="http://www.w3.org/2000/svg">
<g clip-path="url(#clip0_35_47173)">
<rect width="64" height="64" rx="32" fill="white"/>
<path d="M30.8122 0C31.6013 0 32.3912 0 33.1803 0C33.1986 0.00830554 33.216 0.0240861 33.2343 0.0249166C33.7036 0.0597999 34.1729 0.0880387 34.6414 0.128736C35.2112 0.178569 35.7852 0.208469 36.3492 0.300661C37.3576 0.465941 38.3684 0.632052 39.3619 0.867098C44.8498 2.16608 49.6683 4.73831 53.7974 8.57796C57.791 12.2914 60.6418 16.7514 62.3686 21.925C63.1004 24.1176 63.603 26.3626 63.8081 28.6691C63.8513 29.1533 63.8978 29.6367 63.941 30.1209C63.9635 30.3734 63.9809 30.6267 64 30.8792C64 31.6682 64 32.458 64 33.2471C63.9909 33.2645 63.9743 33.2811 63.9726 33.2986C63.9485 33.6092 63.9311 33.9207 63.9028 34.2313C63.8397 34.9289 63.7932 35.6283 63.7018 36.3226C63.4443 38.2752 62.9999 40.1872 62.3761 42.0559C60.6974 47.0841 57.9563 51.4462 54.1255 55.1106C50.038 59.02 45.2386 61.6545 39.7548 63.0432C38.1749 63.4435 36.5726 63.7151 34.9496 63.863C34.3324 63.9194 33.7136 63.9817 33.0939 63.9934C32.2592 64.0091 31.4235 63.9875 30.5879 63.9643C30.092 63.9502 29.5962 63.9111 29.1011 63.8671C28.6426 63.8264 28.1833 63.7757 27.7281 63.7085C27.0611 63.6096 26.3932 63.5116 25.7329 63.3787C22.8448 62.8015 20.0863 61.8472 17.4623 60.5075C13.7129 58.5923 10.4593 56.0433 7.71987 52.8481C4.35914 48.9279 2.07325 44.4513 0.873822 39.4289C0.635432 38.4314 0.465153 37.4165 0.287398 36.4057C0.206827 35.9464 0.176094 35.4779 0.135393 35.0128C0.0814018 34.3883 0.00415328 33.7637 1.32369e-07 33.1383C-0.00747553 32.081 0.024919 31.0229 0.0606361 29.9664C0.0772487 29.4697 0.123764 28.9714 0.189384 28.4789C0.300688 27.6458 0.413654 26.8128 0.568151 25.9872C1.12633 23.0063 2.10232 20.165 3.48615 17.4657C5.93402 12.6909 9.36119 8.76816 13.7652 5.70175C16.331 3.91606 19.1053 2.54648 22.0765 1.57639C24.2992 0.850487 26.5743 0.370427 28.9034 0.153652C29.3619 0.110464 29.8229 0.0955137 30.2831 0.0622915C30.4608 0.0498332 30.6361 0.0215944 30.8122 0ZM36.9871 27.0104C36.9879 26.6101 36.9921 26.2106 36.9888 25.8103C36.9854 25.4166 37.0702 25.0404 37.208 24.6758C37.6882 23.4009 38.9175 22.4632 40.4201 22.464C43.7326 22.4648 47.0444 22.464 50.3569 22.464C50.4192 22.464 50.4815 22.464 50.5496 22.464C50.5496 19.4491 50.5496 16.45 50.5496 13.44C50.4774 13.44 50.4142 13.44 50.3511 13.44C47.1881 13.44 44.025 13.4375 40.862 13.4425C40.337 13.4433 39.8112 13.4649 39.2888 13.509C38.8195 13.548 38.3485 13.6045 37.8875 13.6983C35.7312 14.1352 33.8232 15.087 32.1786 16.5463C30.0414 18.4425 28.7016 20.8012 28.1708 23.6102C28.072 24.1351 28.0013 24.6699 27.9714 25.204C27.9382 25.8045 27.9648 26.4091 27.9656 27.0113C26.9415 27.0104 25.9173 26.9988 24.894 27.0129C24.3117 27.0212 23.7303 27.0686 23.1496 27.1051C22.466 27.1475 21.8007 27.2986 21.147 27.4913C18.3079 28.3294 16.0395 29.9664 14.3458 32.3916C13.0151 34.2977 12.3216 36.4314 12.1604 38.7404C12.1255 39.242 12.1662 39.7503 12.1853 40.2545C12.2094 40.8657 12.3074 41.4679 12.4378 42.0659C12.8955 44.1547 13.8267 46.0069 15.2421 47.6074C17.1342 49.7469 19.4882 51.094 22.2966 51.6272C22.8207 51.7269 23.354 51.8124 23.8847 51.8316C24.5243 51.8548 25.1706 51.8307 25.8085 51.7734C27.4797 51.6239 29.0629 51.1497 30.5182 50.3166C34.0367 48.3034 36.1847 45.3159 36.8251 41.2885C36.9082 40.7677 36.9697 40.2378 36.9788 39.7113C37.0012 38.4854 36.9854 37.2587 36.9854 36.0319C39.9666 36.0328 42.9477 36.0328 45.9288 36.0336C45.9537 36.0336 45.9787 36.0278 46.0019 36.0244C46.0019 33.0154 46.0019 30.0171 46.0019 27.0154C45.9704 27.0129 45.9496 27.0104 45.9288 27.0104C42.9494 27.0088 39.9682 27.0096 36.9871 27.0104Z" fill="#00EE8B"/>
<path d="M36.9913 27.0063C36.9913 30.0154 36.9913 33.0253 36.9913 36.0344C34.0533 36.0336 31.1154 36.0328 28.1774 36.0319C28.1085 36.0319 28.0396 36.0261 27.9706 36.0228L27.9739 36.0261C27.9706 35.9572 27.9648 35.8882 27.9648 35.8193C27.964 32.8816 27.9631 29.944 27.9623 27.0063C30.9717 27.0063 33.9819 27.0063 36.9913 27.0063Z" fill="#16FE98"/>
<path d="M27.9706 36.0228C27.969 37.1424 27.9698 38.2611 27.9631 39.3807C27.9606 39.8575 27.8876 40.3226 27.6832 40.7594C27.1475 41.9073 26.2604 42.6 25.0028 42.7843C23.1721 43.0518 21.4352 41.6739 21.2051 39.8342C20.9792 38.0336 22.2733 36.3592 24.0467 36.076C24.2444 36.0444 24.4471 36.0361 24.6481 36.0353C25.698 36.0311 26.7488 36.0336 27.7987 36.0336C27.8568 36.0336 27.9158 36.0303 27.9739 36.0278C27.9739 36.0261 27.9706 36.0228 27.9706 36.0228Z" fill="#00EE8B"/>
</g>
<defs>
<clipPath id="clip0_35_47173">
<rect width="64" height="64" rx="32" fill="white"/>
</clipPath>
</defs>
</svg>
