<svg width="12" height="14" viewBox="0 0 12 14" fill="none" xmlns="http://www.w3.org/2000/svg">
<path d="M11.302 8.892C11.302 6.862 9.356 6.274 6.528 6.022V4.062C7.718 4.174 8.74 4.482 9.608 5.14L10.826 3.67C9.748 2.83 8.25 2.326 6.528 2.2V0.884H5.184V2.186C2.426 2.298 0.382 3.278 0.382 5.196C0.382 7.142 2.622 7.702 5.184 7.94V10.152C3.588 10.012 2.314 9.508 1.278 8.612L0.00400003 10.054C1.334 11.188 3.07 11.86 5.184 12V13.456H6.528V12.014C9.65 11.902 11.302 10.726 11.302 8.892ZM2.636 4.972C2.636 4.244 3.952 4.048 5.184 4.02V5.924C3.658 5.812 2.636 5.672 2.636 4.972ZM6.528 10.18V8.052C8.264 8.206 9.048 8.374 9.048 9.102C9.048 9.844 8.194 10.138 6.528 10.18Z" fill="currentColor"/>
</svg>
