<svg width="17" height="16" viewBox="0 0 17 16" fill="none" xmlns="http://www.w3.org/2000/svg">
<path d="M13.6535 2.35C12.2026 0.9 10.2114 0 8 0C3.57724 0 0.00500488 3.58 0.00500488 8C0.00500488 12.42 3.57724 16 8 16C11.2584 16 14.044 14.0565 15.2914 11.2673C15.5693 10.646 15.0714 10 14.3907 10C13.949 10 13.5633 10.2832 13.3662 10.6785C12.3846 12.6474 10.3503 14 8 14C4.68793 14 1.99625 11.31 1.99625 8C1.99625 4.69 4.68793 2 8 2C9.66104 2 11.142 2.69 12.2226 3.78L9.85482 6.14634C9.53969 6.46127 9.76274 7 10.2083 7H15.505C15.7811 7 16.005 6.77614 16.005 6.5V1.20657C16.005 0.761196 15.4666 0.538079 15.1516 0.85291L13.6535 2.35Z" fill="white"/>
</svg>
