<svg width="28" height="28" viewBox="0 0 28 28" fill="currentColor" xmlns="http://www.w3.org/2000/svg">
<path d="M14.0252 0.10498C6.30856 0.10498 0.0511398 6.46792 0.0511398 14.3176C0.0511398 20.5973 4.05514 25.9249 9.60747 27.8042C10.3059 27.9358 10.5622 27.4959 10.5622 27.1205C10.5622 26.7816 10.5493 25.662 10.5433 24.4743C6.65567 25.3341 5.83534 22.7974 5.83534 22.7974C5.19967 21.1546 4.28377 20.7178 4.28377 20.7178C3.0159 19.8356 4.37934 19.8538 4.37934 19.8538C5.78258 19.9538 6.52145 21.3184 6.52145 21.3184C7.7678 23.4912 9.79051 22.8631 10.5879 22.4999C10.7134 21.5815 11.0755 20.9541 11.4751 20.5994C8.37131 20.24 5.1085 19.0213 5.1085 13.5753C5.1085 12.0236 5.65438 10.7557 6.5483 9.76037C6.40321 9.40215 5.92489 7.95681 6.68367 5.99909C6.68367 5.99909 7.85712 5.6171 10.5275 7.45596C11.6422 7.14105 12.8377 6.98313 14.0252 6.97771C15.2128 6.98313 16.4092 7.14105 17.5259 7.45596C20.1931 5.6171 21.3649 5.99909 21.3649 5.99909C22.1256 7.95681 21.647 9.40215 21.5019 9.76037C22.3979 10.7557 22.9401 12.0236 22.9401 13.5753C22.9401 19.0342 19.671 20.2362 16.5593 20.5881C17.0606 21.0291 17.5072 21.8941 17.5072 23.2201C17.5072 25.1216 17.491 26.6521 17.491 27.1205C17.491 27.4987 17.7425 27.9419 18.4508 27.8023C24.0002 25.9209 27.9991 20.5951 27.9991 14.3176C27.9991 6.46792 21.7426 0.10498 14.0252 0.10498Z" fill="currentColor"/>
<path d="M5.34383 20.5115C5.31306 20.5823 5.20383 20.6033 5.10433 20.5548C5.00297 20.5084 4.94605 20.4121 4.97891 20.3413C5.00899 20.2686 5.11845 20.2486 5.21957 20.2968C5.32116 20.3434 5.37901 20.4406 5.34383 20.5115Z" fill="currentColor"/>
<path d="M5.90985 21.1534C5.8432 21.2162 5.71292 21.187 5.62453 21.0877C5.53312 20.9886 5.516 20.8561 5.58357 20.7923C5.6523 20.7295 5.77864 20.7589 5.87028 20.858C5.96168 20.9583 5.9795 21.0898 5.90985 21.1534Z" fill="currentColor"/>
<path d="M6.46083 21.972C6.37521 22.0325 6.23521 21.9758 6.14866 21.8494C6.06304 21.723 6.06304 21.5714 6.15052 21.5107C6.23729 21.45 6.37521 21.5046 6.46291 21.63C6.5483 21.7583 6.5483 21.9101 6.46083 21.972Z" fill="currentColor"/>
<path d="M7.21567 22.7628C7.13907 22.8487 6.97593 22.8256 6.85653 22.7084C6.73435 22.5938 6.70033 22.4312 6.77716 22.3453C6.85468 22.2591 7.01874 22.2834 7.13907 22.3996C7.26033 22.514 7.29735 22.6778 7.21567 22.7628Z" fill="currentColor"/>
<path d="M8.25699 23.2221C8.2232 23.3334 8.06608 23.384 7.9078 23.3367C7.74975 23.288 7.64631 23.1576 7.67824 23.0451C7.7111 22.933 7.86892 22.8803 8.02836 22.9309C8.18618 22.9794 8.28985 23.1088 8.25699 23.2221Z" fill="currentColor"/>
<path d="M9.40059 23.3073C9.40452 23.4245 9.27031 23.5217 9.10416 23.5236C8.93709 23.5276 8.80195 23.4327 8.80009 23.3174C8.80009 23.199 8.9313 23.1028 9.09838 23.0999C9.26452 23.0966 9.40059 23.1908 9.40059 23.3073Z" fill="currentColor"/>
<path d="M10.4648 23.123C10.4847 23.2373 10.3693 23.3548 10.2043 23.3859C10.042 23.4162 9.89187 23.3456 9.87127 23.2322C9.85114 23.115 9.96869 22.9975 10.1307 22.9672C10.2959 22.938 10.4438 23.0067 10.4648 23.123Z" fill="currentColor"/>
</svg>
