<svg version="1.1" id="Layer_1" xmlns="http://www.w3.org/2000/svg" xmlns:xlink="http://www.w3.org/1999/xlink" x="0px" y="0px"
	 width="100%" viewBox="0 0 512 512" enable-background="new 0 0 512 512" xml:space="preserve">
<path fill="currentColor" opacity="1.000000" stroke="none" 
	d="
M301.000000,513.000000 
	C200.691025,513.000000 100.882042,513.000000 1.036533,513.000000 
	C1.036533,342.399323 1.036533,171.798660 1.036533,1.098988 
	C171.558990,1.098988 342.118042,1.098988 512.838562,1.098988 
	C512.838562,171.666550 512.838562,342.333252 512.838562,513.000000 
	C442.465302,513.000000 371.982635,513.000000 301.000000,513.000000 
M371.201965,320.324860 
	C389.253143,333.886322 407.612946,333.780304 424.448883,320.105774 
	C425.362213,319.363953 426.972015,318.679077 427.899750,319.000488 
	C428.689514,319.274139 429.195343,320.994751 429.410309,322.152557 
	C429.731964,323.884918 429.688477,325.685059 429.801819,327.480316 
	C438.423706,327.480316 446.501160,327.480316 454.667328,327.480316 
	C454.667328,280.909821 454.667328,234.690369 454.667328,188.453430 
	C445.947510,188.453430 437.571045,188.453430 428.931976,188.453430 
	C428.931976,197.026031 428.931976,205.180969 428.931976,213.335907 
	C428.931976,221.452408 428.931976,229.568909 428.931976,238.904633 
	C426.505463,237.735199 424.891113,237.206497 423.575623,236.261642 
	C421.833466,235.010315 420.442017,233.269974 418.697784,232.022308 
	C403.379913,221.065430 377.809296,226.073151 366.023071,242.227783 
	C359.544159,251.108032 356.302368,261.177795 355.515900,271.971252 
	C354.211578,289.871704 357.356628,306.505280 371.201965,320.324860 
M238.058807,324.224060 
	C238.807983,325.416260 239.525360,327.619904 240.311218,327.644623 
	C248.402496,327.898865 256.504852,327.800629 265.005188,327.800629 
	C265.005188,325.317017 265.005188,323.512970 265.005188,321.708954 
	C265.005310,307.052734 264.953949,292.396149 265.046631,277.740540 
	C265.066498,274.601257 265.324493,271.406555 265.959564,268.338135 
	C268.492798,256.098724 277.919128,249.366043 290.365601,250.689163 
	C300.624817,251.779739 306.021423,259.044434 306.047607,271.939026 
	C306.081421,288.593750 306.056702,305.248627 306.057190,321.903442 
	C306.057251,323.684601 306.057220,325.465759 306.057220,327.412842 
	C315.335327,327.412842 324.025391,327.412842 332.801910,327.412842 
	C332.801910,305.023071 333.516693,283.019928 332.545929,261.091370 
	C331.918213,246.911499 325.536041,234.726120 311.186829,229.440643 
	C296.035095,223.859558 281.442871,224.451340 269.023743,236.635406 
	C268.050568,237.590149 266.277435,237.729477 264.489929,238.390610 
	C264.227356,234.854019 264.023804,232.112656 263.824158,229.423920 
	C255.027893,229.423920 246.666000,229.423920 238.057587,229.423920 
	C238.057587,261.013977 238.057587,292.147980 238.058807,324.224060 
M109.339264,280.499969 
	C109.339287,294.317810 109.490547,308.138245 109.251099,321.951935 
	C109.175034,326.339935 110.118622,328.334045 114.988174,327.929657 
	C120.279060,327.490295 125.653992,327.550293 130.955978,327.917175 
	C135.313889,328.218781 136.668732,326.891754 136.622040,322.405273 
	C136.395172,300.598694 136.608994,278.787811 136.440170,256.980194 
	C136.408859,252.934372 137.447296,251.343369 141.721161,251.556885 
	C148.311569,251.886108 154.930557,251.643570 161.535583,251.643570 
	C161.535583,243.714767 161.535583,236.498825 161.535583,228.967316 
	C154.322540,228.967316 147.509369,229.064285 140.703384,228.886078 
	C139.329422,228.850098 137.127228,228.096268 136.758377,227.123199 
	C133.718018,219.102127 139.445862,210.932266 148.029037,210.760513 
	C152.023026,210.680588 156.033783,210.925964 160.007111,210.627411 
	C161.257034,210.533508 163.411789,209.193161 163.448502,208.349182 
	C163.735519,201.751022 163.607376,195.134796 163.607376,188.610870 
	C154.237335,188.610870 145.336533,187.649277 136.722733,188.812637 
	C119.212196,191.177536 111.676697,199.677856 109.642044,217.394897 
	C109.215363,221.110321 109.205452,224.873596 108.974609,229.149689 
	C103.373894,229.149689 98.305717,229.149689 93.130630,229.149689 
	C93.130630,236.829773 93.130630,243.921066 93.130630,251.643448 
	C96.832550,251.643448 100.313026,251.902710 103.738075,251.577759 
	C108.007416,251.172729 109.676933,252.444397 109.442146,257.030396 
	C109.059608,264.502411 109.339447,272.008331 109.339264,280.499969 
M181.930176,257.500000 
	C181.930176,280.749634 181.930176,303.999268 181.930176,327.395813 
	C191.210327,327.395813 199.891678,327.395813 208.479080,327.395813 
	C208.479080,294.423676 208.479080,261.890686 208.479080,229.307098 
	C199.519775,229.307098 190.955383,229.307098 181.930099,229.307098 
	C181.930099,238.593948 181.930099,247.546967 181.930176,257.500000 
M46.115059,316.476074 
	C46.115059,320.085724 46.115059,323.695374 46.115059,327.525543 
	C56.332748,327.525543 65.884895,327.525543 75.543823,327.525543 
	C75.543823,317.663239 75.543823,308.135345 75.543823,298.638397 
	C65.568573,298.638397 56.012390,298.638397 46.115185,298.638397 
	C46.115185,304.525940 46.115185,310.005737 46.115059,316.476074 
M181.337708,199.523209 
	C181.341599,202.855911 181.151733,206.206619 181.459091,209.511093 
	C181.560577,210.602402 182.921738,212.444382 183.746368,212.466400 
	C192.024658,212.687607 200.311188,212.600952 208.657928,212.600952 
	C208.657928,204.113052 208.657928,196.235565 208.657928,188.476074 
	C207.938843,188.273834 207.625824,188.110886 207.311676,188.108612 
	C202.147018,188.071335 196.982254,188.040421 191.817474,188.035614 
	C181.336334,188.025864 181.336334,188.032715 181.337708,199.523209 
z"/>

<path fill="currentColor" opacity="1.000000" stroke="none" 
	d="
M382.628723,271.766724 
	C385.901093,247.265976 408.235687,244.467926 419.632416,253.415787 
	C428.836029,260.641785 430.035767,271.120667 429.658691,281.865662 
	C429.555298,284.810791 428.749329,287.788239 427.895721,290.640106 
	C424.360657,302.450592 416.563263,308.207977 404.791748,307.900055 
	C394.180878,307.622467 385.618744,300.457367 383.415375,289.015900 
	C382.363434,283.553467 382.780426,277.808167 382.628723,271.766724 
z"/>
</svg>