<svg width="40" height="40" viewBox="0 0 40 40" fill="currentColor" xmlns="http://www.w3.org/2000/svg">
<path d="M28.0917 26.9084L25 23.8417C26.2001 22.3454 26.7813 20.4461 26.6241 18.5345C26.4668 16.6228 25.5831 14.844 24.1546 13.5639C22.7262 12.2838 20.8615 11.5996 18.9441 11.6521C17.0267 11.7046 15.2023 12.4897 13.846 13.846C12.4897 15.2023 11.7046 17.0267 11.6521 18.9441C11.5996 20.8615 12.2838 22.7262 13.5639 24.1546C14.844 25.5831 16.6228 26.4668 18.5345 26.6241C20.4461 26.7813 22.3454 26.2001 23.8417 25L26.9084 28.0667C26.9858 28.1448 27.078 28.2068 27.1796 28.2491C27.2811 28.2914 27.39 28.3132 27.5 28.3132C27.6101 28.3132 27.719 28.2914 27.8205 28.2491C27.9221 28.2068 28.0142 28.1448 28.0917 28.0667C28.2419 27.9113 28.3259 27.7037 28.3259 27.4875C28.3259 27.2714 28.2419 27.0638 28.0917 26.9084ZM19.1667 25C18.013 25 16.8852 24.6579 15.9259 24.0169C14.9666 23.376 14.2189 22.4649 13.7774 21.399C13.3359 20.3331 13.2204 19.1602 13.4455 18.0287C13.6705 16.8971 14.2261 15.8577 15.0419 15.0419C15.8577 14.2261 16.8971 13.6705 18.0287 13.4455C19.1602 13.2204 20.3331 13.3359 21.399 13.7774C22.4649 14.2189 23.376 14.9666 24.0169 15.9259C24.6579 16.8852 25 18.013 25 19.1667C25 20.7138 24.3855 22.1975 23.2915 23.2915C22.1975 24.3855 20.7138 25 19.1667 25Z" fill="currentColor"/>
</svg>
