<svg width="28" height="28" viewBox="0 0 28 28" fill="currentColor" xmlns="http://www.w3.org/2000/svg">
<path d="M25.6667 6.76667C24.7897 7.14711 23.8623 7.39861 22.9133 7.51333C23.9145 6.91521 24.6648 5.97425 25.025 4.865C24.0841 5.42507 23.0542 5.81968 21.98 6.03167C21.262 5.253 20.3058 4.73468 19.2614 4.55799C18.2171 4.38131 17.1436 4.55625 16.2094 5.05539C15.2752 5.55452 14.5331 6.34962 14.0994 7.31598C13.6658 8.28233 13.5652 9.36529 13.8133 10.395C11.911 10.2988 10.0502 9.80345 8.35176 8.94117C6.65335 8.0789 5.15532 6.86898 3.955 5.39C3.53399 6.1252 3.31277 6.95779 3.31333 7.805C3.31184 8.59178 3.50492 9.36672 3.87538 10.0608C4.24584 10.7549 4.78219 11.3467 5.43667 11.7833C4.67597 11.7626 3.93153 11.5585 3.26667 11.1883V11.2467C3.27237 12.349 3.65866 13.4156 4.3602 14.266C5.06174 15.1163 6.03547 15.6982 7.11667 15.9133C6.70047 16.04 6.26835 16.1068 5.83333 16.1117C5.53221 16.1081 5.23183 16.0808 4.935 16.03C5.2429 16.9783 5.83873 17.807 6.63959 18.4009C7.44045 18.9947 8.40651 19.3241 9.40333 19.3433C7.72007 20.6678 5.64186 21.3907 3.5 21.3967C3.11003 21.3979 2.72036 21.3746 2.33333 21.3267C4.52017 22.7386 7.06862 23.4882 9.67167 23.485C11.468 23.5037 13.25 23.1642 14.9136 22.4864C16.5773 21.8087 18.0892 20.8062 19.3611 19.5376C20.6329 18.269 21.6393 16.7596 22.3213 15.0977C23.0033 13.4358 23.3474 11.6547 23.3333 9.85833C23.3333 9.66 23.3333 9.45 23.3333 9.24C24.2488 8.55728 25.0384 7.72033 25.6667 6.76667Z" fill="currentColor"/>
</svg>
