<svg width="40" height="41" viewBox="0 0 40 41" fill="none" xmlns="http://www.w3.org/2000/svg">
<rect y="0.0317383" width="40" height="40" rx="8" fill="#A5A4FF" fill-opacity="0.15"/>
<path d="M11 25.0317C11 25.584 11.4477 26.0317 12 26.0317H28C28.5523 26.0317 29 25.584 29 25.0317C29 24.4795 28.5523 24.0317 28 24.0317H12C11.4477 24.0317 11 24.4795 11 25.0317Z" fill="white"/>
<path d="M11 20.0317C11 20.584 11.4477 21.0317 12 21.0317H28C28.5523 21.0317 29 20.584 29 20.0317C29 19.4795 28.5523 19.0317 28 19.0317H12C11.4477 19.0317 11 19.4795 11 20.0317Z" fill="white"/>
<path d="M12 14.0317C11.4477 14.0317 11 14.4795 11 15.0317C11 15.584 11.4477 16.0317 12 16.0317H28C28.5523 16.0317 29 15.584 29 15.0317C29 14.4795 28.5523 14.0317 28 14.0317H12Z" fill="white"/>
</svg>
