<svg width="201" height="32" viewBox="0 0 201 32" fill="none" xmlns="http://www.w3.org/2000/svg">
<g clip-path="url(#clip0_359_196266)">
<path d="M61.8653 4.43305C61.8034 13.0421 61.7404 21.6512 61.6784 30.2972C59.2922 30.2972 56.97 30.2972 54.6448 30.2972C54.6448 29.3165 54.6298 28.3589 54.6478 27.4002C54.7238 23.4066 54.8067 19.4129 54.8917 15.4193C54.9857 11.0268 55.0857 6.63429 55.1756 2.24179C55.1816 1.95889 55.2416 1.82094 55.5645 1.82194C59.2622 1.83293 62.961 1.83193 66.6587 1.83493C66.6907 1.83493 66.7217 1.85093 66.8246 1.87792C68.0022 9.16243 69.1848 16.4759 70.3674 23.7894C70.4134 23.7944 70.4604 23.7994 70.5064 23.8044C71.689 16.4939 72.8726 9.18342 74.0632 1.82594C74.2591 1.82594 74.422 1.82594 74.585 1.82594C78.0998 1.82594 81.6146 1.83393 85.1294 1.81594C85.5752 1.81394 85.6852 1.94789 85.6932 2.37875C85.7752 6.78824 85.8751 11.1977 85.9761 15.6072C86.0821 20.2656 86.194 24.924 86.302 29.5834C86.307 29.8114 86.303 30.0403 86.303 30.3002C86.111 30.3142 85.9661 30.3332 85.8201 30.3342C83.7708 30.3362 81.7225 30.3242 79.6732 30.3452C79.2584 30.3492 79.1794 30.2012 79.1784 29.8254C79.1674 26.5295 79.1374 23.2336 79.1134 19.9377C79.0774 14.9105 79.0435 9.88418 79.0065 4.8579C79.0055 4.71695 78.9825 4.576 78.8675 4.42905C78.6586 5.54367 78.4467 6.65829 78.2397 7.7729C76.8642 15.1624 75.4877 22.5519 74.1201 29.9423C74.0632 30.2492 73.9332 30.3442 73.6243 30.3422C71.492 30.3302 69.3598 30.3302 67.2275 30.3412C66.9146 30.3432 66.8046 30.2382 66.7477 29.9273C65.697 24.2363 64.6324 18.5482 63.5737 12.8592C63.0659 10.1291 62.5631 7.39803 62.0553 4.66796C62.0393 4.58099 61.9913 4.50002 61.9583 4.41605C61.9263 4.42105 61.8963 4.42705 61.8653 4.43305Z" fill="white"/>
<path d="M155.085 6.65514C155.085 8.66745 155.063 10.6128 155.089 12.5571C155.157 17.5664 155.245 22.5747 155.328 27.583C155.34 28.2818 155.359 28.9805 155.383 29.6783C155.392 29.9242 155.318 30.0412 155.047 30.0402C152.914 30.0322 150.782 30.0352 148.651 30.0312C148.588 30.0312 148.526 30.0012 148.444 29.9812C148.444 20.6074 148.444 11.2456 148.444 1.85578C148.623 1.84479 148.769 1.82779 148.915 1.82779C152.113 1.82579 155.31 1.83379 158.509 1.81679C158.884 1.8148 159.018 1.94675 159.117 2.28464C161.232 9.53016 163.358 16.7727 165.482 24.0152C165.526 24.1652 165.584 24.3101 165.74 24.4381C165.612 16.9286 165.485 9.4182 165.356 1.86678C167.706 1.86678 170.011 1.86678 172.354 1.86678C172.354 11.2256 172.354 20.5884 172.354 30.0362C172.175 30.0362 171.983 30.0362 171.79 30.0362C168.858 30.0362 165.927 30.0192 162.995 30.0511C162.418 30.0571 162.18 29.9062 162.006 29.3314C159.77 21.9139 157.501 14.5055 155.239 7.09599C155.199 6.96104 155.147 6.82908 155.085 6.65514Z" fill="white"/>
<path d="M120.464 1.85083C122.851 1.85083 125.194 1.85083 127.607 1.85083C127.607 2.06076 127.607 2.25269 127.607 2.44563C127.607 9.30528 127.604 16.1659 127.613 23.0256C127.614 23.4534 127.644 23.8993 127.768 24.3042C128.164 25.5977 129.404 26.2745 130.916 26.0726C132.244 25.8946 133.159 24.9229 133.238 23.6004C133.251 23.3845 133.248 23.1675 133.248 22.9516C133.248 16.125 133.248 9.29829 133.248 2.47162C133.248 2.27668 133.248 2.08075 133.248 1.85683C135.655 1.85683 138.01 1.85683 140.436 1.85683C140.436 2.07875 140.436 2.27269 140.436 2.46662C140.436 9.2603 140.447 16.053 140.422 22.8467C140.419 23.7533 140.321 24.68 140.117 25.5637C139.514 28.1778 137.773 29.7783 135.271 30.523C132.12 31.4617 128.918 31.4827 125.76 30.572C122.336 29.5844 120.477 27.1382 120.455 23.5794C120.412 16.4538 120.436 9.32728 120.434 2.20071C120.434 2.10274 120.451 2.00378 120.464 1.85083Z" fill="white"/>
<path d="M190.15 18.4861C190.15 17.0756 190.15 15.7521 190.15 14.3925C193.488 14.3925 196.796 14.3925 200.181 14.3925C200.181 14.5795 200.181 14.7544 200.181 14.9294C200.181 17.3435 200.224 19.7587 200.162 22.1719C200.133 23.2945 200.028 24.4451 199.735 25.5237C199.117 27.801 197.513 29.2615 195.338 30.0152C191.775 31.2498 188.165 31.2708 184.622 29.9492C181.775 28.8876 180.242 26.7493 180.019 23.7084C179.958 22.8796 179.923 22.0469 179.921 21.2152C179.911 17.5355 179.891 13.8557 179.932 10.176C179.944 9.08535 180.045 7.97273 180.285 6.91109C180.851 4.40895 182.436 2.71852 184.841 1.8978C188.323 0.710211 191.857 0.704213 195.332 1.9058C198.327 2.94145 199.993 5.34363 200.093 8.50155C200.117 9.26529 200.097 10.031 200.097 10.8477C199.943 10.8627 199.802 10.8867 199.66 10.8877C197.594 10.8907 195.529 10.8787 193.463 10.8987C193.054 10.9027 192.951 10.7568 192.961 10.3809C192.975 9.7991 192.964 9.21531 192.928 8.6345C192.852 7.41392 192.128 6.56221 190.936 6.25432C189.298 5.83146 187.749 6.48024 187.273 7.85077C187.102 8.3436 187.02 8.89242 187.017 9.41524C186.997 13.8607 187.007 18.3062 187.005 22.7517C187.004 23.8853 187.288 24.8919 188.386 25.4298C189.553 26.0016 190.742 25.9726 191.875 25.3108C192.478 24.9579 192.924 24.4051 192.946 23.7084C192.999 21.9859 192.964 20.2595 192.964 18.4851C192.045 18.4861 191.12 18.4861 190.15 18.4861Z" fill="white"/>
<path d="M0.294189 21.0093C2.0196 21.0093 3.66704 21.0093 5.31447 21.0093C6.03123 21.0093 6.74798 21.0303 7.46274 21.0013C7.84961 20.9853 7.94857 21.1273 7.93558 21.4902C7.91059 22.1549 7.92558 22.8217 7.92858 23.4875C7.93858 25.3518 9.00321 26.4095 10.8606 26.3635C11.9012 26.3375 12.8809 26.0946 13.3677 25.0469C13.9025 23.8953 14.0075 22.6878 13.1648 21.6511C12.618 20.9783 11.9302 20.3815 11.2045 19.9037C10.0259 19.127 8.7453 18.5062 7.54171 17.7644C6.09921 16.8747 4.60572 16.036 3.28717 14.9834C0.268198 12.5702 -0.460553 8.05975 1.51177 4.72789C2.43146 3.17442 3.82298 2.19776 5.50841 1.67294C8.83927 0.635291 12.2111 0.601303 15.542 1.62095C18.6509 2.57263 20.2114 4.79787 20.2264 8.03776C20.2294 8.69953 20.2264 9.36131 20.2264 10.0511C17.8592 10.0511 15.551 10.0511 13.1818 10.0511C13.1668 9.89913 13.1388 9.74218 13.1368 9.58523C13.1298 9.15238 13.1458 8.71853 13.1298 8.28668C13.0668 6.63824 11.9772 5.65058 10.3308 5.72655C9.25213 5.77653 8.35443 6.13741 7.96157 7.22404C7.55371 8.35365 7.63668 9.45028 8.56136 10.309C9.13017 10.8368 9.76495 11.3176 10.4357 11.7065C12.1771 12.7172 13.9735 13.6318 15.7099 14.6505C16.5956 15.1703 17.4373 15.7841 18.2341 16.4359C19.8855 17.7884 20.8901 19.5128 20.8632 21.6971C20.8472 23.0056 20.8362 24.3392 20.5873 25.6158C20.0854 28.1799 18.393 29.8133 15.9768 30.619C12.3941 31.8136 8.76029 31.8266 5.19251 30.5601C2.05459 29.4464 0.358167 26.9453 0.296189 23.6144C0.281194 22.7677 0.294189 21.922 0.294189 21.0093Z" fill="white"/>
<path d="M48.8057 30.3102C48.6057 30.3202 48.4588 30.3342 48.3128 30.3342C46.1146 30.3352 43.9153 30.3252 41.7171 30.3442C41.3212 30.3472 41.1783 30.2382 41.1213 29.8374C40.6215 26.3476 40.0967 22.8608 39.5828 19.373C38.9301 14.9475 38.2793 10.521 37.6275 6.09549C37.5355 5.4717 37.4416 4.84892 37.2386 4.21313C37.1437 4.80393 37.0437 5.39373 36.9547 5.98553C36.16 11.2307 35.3673 16.4759 34.5745 21.7221C34.1647 24.4352 33.7538 27.1483 33.355 29.8634C33.311 30.1613 33.264 30.3452 32.8881 30.3432C30.5559 30.3272 28.2247 30.3352 25.8925 30.3332C25.8285 30.3332 25.7636 30.3182 25.6076 30.2982C27.368 20.8075 29.1244 11.3387 30.8888 1.82795C31.0847 1.82795 31.2487 1.82795 31.4116 1.82795C35.2923 1.82795 39.174 1.83295 43.0546 1.81995C43.4485 1.81895 43.5885 1.93291 43.6604 2.32778C45.3319 11.4377 47.0203 20.5446 48.7037 29.6524C48.7397 29.8464 48.7647 30.0423 48.8057 30.3102Z" fill="white"/>
<path d="M93.3478 20.9983C95.8879 20.9983 98.347 20.9983 100.877 20.9983C100.877 21.78 100.866 22.5398 100.882 23.2995C100.89 23.6794 100.894 24.0733 100.99 24.4361C101.303 25.6157 102.377 26.3045 103.814 26.2605C104.818 26.2305 105.778 26.0136 106.256 25.0119C106.775 23.9263 106.912 22.7627 106.171 21.7361C105.715 21.1023 105.116 20.5115 104.459 20.0926C102.889 19.092 101.228 18.2353 99.6416 17.2596C98.453 16.5288 97.2744 15.7671 96.1788 14.9074C94.2824 13.4199 93.4087 11.4046 93.5217 9.00241C93.5637 8.11172 93.6636 7.20103 93.9016 6.34532C94.5373 4.0621 96.1228 2.6186 98.3191 1.89184C101.72 0.767228 105.174 0.741237 108.583 1.82587C111.477 2.74655 112.952 4.85883 113.023 7.89079C113.04 8.62054 113.026 9.3503 113.026 10.116C110.697 10.116 108.408 10.116 106.039 10.116C106.039 9.6302 106.04 9.15436 106.039 8.67952C106.034 6.59224 104.685 5.49161 102.634 5.90047C100.862 6.25435 100.041 8.56556 101.234 10.0301C101.727 10.6349 102.382 11.1537 103.056 11.5545C104.801 12.5922 106.63 13.4859 108.36 14.5465C109.515 15.2553 110.616 16.085 111.634 16.9807C112.85 18.0493 113.586 19.4518 113.629 21.0933C113.666 22.4998 113.684 23.9333 113.462 25.3148C113.062 27.808 111.508 29.4944 109.174 30.3481C105.48 31.6987 101.718 31.7137 98.0282 30.3571C94.9612 29.2295 93.4837 26.8633 93.3547 23.6364C93.3188 22.7767 93.3478 21.913 93.3478 20.9983Z" fill="white"/>
</g>
<defs>
<clipPath id="clip0_359_196266">
<rect width="199.906" height="30.6365" fill="white" transform="translate(0.289307 0.875244)"/>
</clipPath>
</defs>
</svg>
