<svg width="204" height="87" viewBox="0 0 204 87" fill="currentColor" xmlns="http://www.w3.org/2000/svg">
<g clip-path="url(#clip0_58_26929)">
<path d="M202.94 86.5677C199.094 86.5855 195.247 86.5954 191.401 86.6251C190.791 86.629 190.626 86.3501 190.594 85.7862C190.346 81.3543 190.073 76.9225 189.802 72.4926C189.76 71.812 189.693 71.1334 189.631 70.3736C187.25 70.3736 184.969 70.3558 182.687 70.4072C182.508 70.4112 182.208 70.8841 182.186 71.1571C181.979 73.8439 181.814 76.5347 181.644 79.2235C181.491 81.6472 181.348 84.0689 181.197 86.5558C177.291 86.5558 173.467 86.5558 169.486 86.5558C169.655 84.8326 169.816 83.1785 169.979 81.5245C170.967 71.4776 171.952 61.4288 172.945 51.3819C173.974 40.9769 175.016 30.5759 176.047 20.1709C176.68 13.7922 177.317 7.41147 177.91 1.0288C177.982 0.251244 178.274 0.0355869 179.011 0.0375654C183.854 0.055372 188.697 0.059329 193.541 0.0276728C194.359 0.0217373 194.615 0.326428 194.687 1.09607C195.635 11.3428 196.598 21.5875 197.58 31.8302C198.382 40.2092 199.226 48.5823 200.034 56.9613C200.796 64.8813 201.527 72.8052 202.293 80.7252C202.457 82.4148 202.723 84.0926 202.942 85.7763C202.94 86.0414 202.94 86.3046 202.94 86.5677ZM185.831 7.43917C185.705 7.455 185.58 7.47083 185.455 7.48666C185.415 7.79332 185.355 8.09999 185.341 8.40864C184.969 16.2218 184.601 24.0369 184.236 31.85C184.051 35.8229 183.91 39.7997 183.693 43.7706C183.402 49.0552 183.074 54.3378 182.721 59.6184C182.666 60.4553 182.91 60.7224 183.749 60.6888C185.14 60.6314 186.535 60.6334 187.927 60.6888C188.785 60.7224 189.089 60.489 189.028 59.5789C188.657 54.1676 188.323 48.7524 188.016 43.3373C187.549 35.0671 187.117 26.7949 186.661 18.5248C186.474 15.1118 186.267 11.6989 186.056 8.28795C186.036 8.00107 185.908 7.7221 185.831 7.43917Z" fill="currentColor"/>
<path d="M124.471 69.2401C122.779 46.2696 120.753 23.307 121.326 0.182195C121.459 0.136689 121.577 0.0615058 121.696 0.0615058C124.682 0.0516132 127.668 0.0555702 130.654 0.0397421C131.219 0.0357851 131.432 0.277163 131.407 0.811361C131.389 1.17145 131.401 1.5355 131.401 1.89756C131.401 29.6679 131.401 57.4383 131.401 85.2087C131.401 86.6273 131.401 86.6292 129.929 86.6292C125.914 86.6292 121.901 86.6174 117.886 86.6372C117.217 86.6411 116.889 86.5006 116.787 85.7528C115.776 78.3235 114.723 70.9001 113.68 63.4747C112.199 52.9273 110.718 42.3779 109.231 31.8324C108.639 27.632 108.034 23.4336 107.431 19.2352C107.413 19.1126 107.365 18.9919 107.196 18.8771C107.196 19.5083 107.174 20.1394 107.2 20.7686C107.531 29.1792 108.016 37.5879 108.166 46.0045C108.399 59.126 108.395 72.2534 108.524 85.3768C108.534 86.3701 108.241 86.6827 107.226 86.655C104.606 86.5837 101.985 86.6055 99.365 86.6391C98.5927 86.649 98.2563 86.3918 98.3299 85.6242C98.3538 85.363 98.3339 85.0979 98.3339 84.8347C98.3339 57.2622 98.3339 29.6897 98.3339 2.1152C98.3339 0.0456775 98.3339 0.0456777 100.466 0.0456777C104.646 0.0456777 108.827 0.0694198 113.007 0.0258926C113.885 0.016 114.201 0.289034 114.327 1.15166C115.939 12.1482 117.593 23.1369 119.226 34.1315C120.597 43.3691 121.953 52.6107 123.324 61.8484C123.687 64.3116 124.087 66.7749 124.471 69.2401Z" fill="currentColor"/>
<path d="M162.381 44.206C162.992 44.9242 163.944 45.9312 164.764 47.0333C166.599 49.4985 167.386 52.3555 167.433 55.3628C167.519 60.6256 167.533 65.8924 167.427 71.1553C167.366 74.2695 166.699 77.2985 165.058 80.023C162.357 84.5082 158.163 86.4452 153.085 86.5797C148.178 86.7103 143.265 86.5995 138.356 86.6431C137.468 86.651 137.416 86.2177 137.418 85.5489C137.432 80.9093 137.424 76.2697 137.424 71.6301C137.424 48.533 137.424 25.4339 137.424 2.33674C137.424 2.00831 137.422 1.6779 137.424 1.34947C137.43 0.0476056 137.43 0.04167 138.72 0.0436485C143.432 0.0476056 148.144 0.00605684 152.854 0.0772832C156.525 0.132682 159.927 1.04477 162.727 3.58914C164.832 5.50038 166.145 7.88646 166.693 10.6049C167.139 12.8149 167.401 15.0902 167.451 17.3437C167.555 22.112 167.535 26.8861 167.435 31.6543C167.36 35.2512 166.667 38.7156 164.344 41.6577C163.625 42.5638 162.932 43.4878 162.381 44.206ZM149.026 25.2677C149.026 27.0424 149.026 28.8171 149.026 30.5918C149.026 33.2866 149.024 35.9813 149.022 38.676C149.022 39.143 148.962 39.6119 149.681 39.6297C153.298 39.7128 155.736 39.321 155.848 34.4539C155.852 34.2561 155.874 34.0602 155.876 33.8623C155.88 27.9802 155.886 22.0961 155.882 16.214C155.882 15.6897 155.832 15.1614 155.758 14.6431C155.396 12.1284 153.951 10.8839 151.389 10.8621C150.959 10.8582 150.523 10.8918 150.099 10.8364C149.281 10.7296 149.002 11.0165 149.01 11.8593C149.044 16.3288 149.024 20.7982 149.026 25.2677ZM149.026 62.3568C149.026 66.0072 148.992 69.6595 149.036 73.3099C149.07 76.244 148.395 75.8542 151.693 75.8028C153.746 75.7711 154.954 74.7779 155.513 72.8311C155.675 72.2672 155.798 71.6717 155.802 71.088C155.838 65.5304 155.913 59.9708 155.838 54.4151C155.778 50.1633 154.391 48.9663 150.099 48.9683C149.195 48.9683 149 49.2828 149.008 50.1197C149.048 54.1994 149.024 58.2791 149.026 62.3568Z" fill="currentColor"/>
<path d="M68.0381 0.116787C66.354 0.96161 65.934 2.28721 65.8962 3.8166C65.8823 4.39433 65.8424 4.82564 65.1875 5.253C64.3395 5.80698 64.7277 6.86746 65.1139 7.59556C65.7369 8.76881 65.4204 9.89459 64.9367 10.872C64.7058 11.3369 63.7264 11.5288 63.0496 11.6693C61.7656 11.9344 60.4498 12.0432 59.1578 12.2728C57.6012 12.5478 56.6098 13.6122 55.7877 14.8389C55.3119 15.5472 54.8401 16.2792 54.5057 17.0588C52.8833 20.8298 51.3087 24.6226 49.7142 28.4035C49.2046 29.6124 49.9292 30.6432 50.2497 31.7136C50.3194 31.949 50.8986 32.1192 51.2649 32.1687C51.9457 32.2636 52.6405 32.2458 53.4745 32.2834C53.3451 32.6811 53.3252 33.0293 53.1461 33.2469C51.1017 35.728 50.813 38.5691 51.679 41.4934C52.1667 43.1434 53.1142 44.659 53.8528 46.2359C54.0757 46.7127 54.3683 47.1717 54.4997 47.6723C54.7824 48.7466 55.2482 49.5222 56.5401 49.4866C56.7492 49.4806 57.0199 49.7853 57.1732 50.0089C59.3828 53.2022 61.3177 56.625 63.8478 59.5413C66.356 62.4319 69.1927 65.1188 72.5131 67.1784C73.8369 67.9995 74.4799 69.0679 74.1972 70.6962C74.1036 71.2363 74.4659 71.8872 74.7207 72.4432C75.0751 73.2168 75.6086 73.9172 75.9052 74.7106C76.158 75.3892 76.1858 76.149 76.3093 76.8751C76.3371 77.0353 76.2794 77.2451 76.363 77.3559C77.3663 78.6993 76.6915 80.1436 76.6318 81.5463C76.5979 82.3654 76.4048 83.1925 76.4725 83.9997C76.5442 84.8623 76.8388 85.7071 77.0518 86.6232C77.0339 86.6232 76.7572 86.6232 76.4785 86.6232C69.977 86.6232 63.4736 86.5124 56.9761 86.6608C52.4892 86.7656 49.1429 83.3883 49.1668 78.9604C49.2484 63.7971 49.1907 48.6318 49.1887 33.4666C49.1867 24.8501 49.1827 16.2337 49.1907 7.61732C49.1946 4.14899 50.9106 1.56901 53.9324 0.468961C54.3942 0.300788 54.8919 0.136572 55.3756 0.132615C59.5122 0.104916 63.6487 0.116787 68.0381 0.116787Z" fill="currentColor"/>
<path d="M85.0563 47.3776C85.0822 47.8307 85.1061 48.0799 85.1061 48.3273C85.1081 58.6254 85.1121 68.9236 85.1041 79.2217C85.1001 82.6445 83.1871 85.3709 80.1653 86.3285C79.9881 86.3859 79.801 86.4175 79.3531 86.5244C81.3378 84.7319 80.7884 82.8107 80.3027 80.8619C79.7592 78.6796 79.2377 76.4874 78.8435 74.2774C78.7121 73.5394 78.8833 72.6847 79.1342 71.9566C79.6796 70.3718 79.3531 69.0383 78.4275 67.687C77.9298 66.9609 77.6133 66.0587 77.4222 65.1901C77.048 63.4906 76.9206 61.7336 76.4965 60.0499C76.1641 58.7283 75.7282 57.3611 75.0095 56.2176C73.5723 53.9344 73.0468 51.4691 72.7621 48.8496C72.5272 46.7029 71.9419 44.5958 71.5757 42.459C71.4702 41.8457 71.7329 41.1591 71.5796 40.5695C70.9864 38.2804 70.3196 36.0071 69.6189 33.7456C69.4496 33.2015 69.1471 32.608 68.7251 32.2499C68.1259 31.7434 68.0701 31.2784 68.3428 30.6216C68.8724 29.3454 69.4138 28.0713 69.8557 26.7655C70.3614 25.2657 71.6911 24.8325 72.9751 24.0767C73.4946 26.621 73.7873 29.0862 74.5318 31.407C75.2663 33.6982 76.4587 35.8448 77.4759 38.1122C74.2133 39.3369 72.3819 41.5687 72.6486 45.033C72.8616 47.8049 74.4223 49.8171 77.1316 50.6124C80.454 51.5898 83.0936 50.4284 85.0563 47.3776Z" fill="currentColor"/>
<path d="M85.1059 41.256C84.3575 40.4943 83.6528 39.7682 82.9381 39.0519C82.7789 38.8937 82.5997 38.6701 82.4066 38.6444C81.3376 38.4999 81.1266 37.756 81.0649 36.8776C80.9236 34.907 80.2766 33.0966 79.347 31.3615C79.0584 30.8213 78.8434 30.204 78.7578 29.6006C78.4014 27.0701 78.0829 24.5356 77.7983 21.9952C77.4917 19.2589 76.3869 17.0489 73.9304 15.571C72.7281 14.8468 71.6372 13.9427 70.4826 13.1374C69.9531 12.7674 70.0646 12.4271 70.413 11.9958C71.3506 10.8324 72.2822 9.66314 73.166 8.45823C73.5681 7.91018 73.9802 7.31069 73.5761 6.55094C73.5184 6.44212 73.6099 6.23636 73.6677 6.08797C75.0173 2.64338 74.0857 2.07555 71.5317 0.0119651C72.2842 0.0119651 72.8814 0.0119651 73.4786 0.0119651C75.0372 0.0139436 76.5979 -0.0276051 78.1546 0.0297717C82.0483 0.170246 85.0602 3.14197 85.0781 7.00996C85.1258 17.5376 85.102 28.0653 85.1059 38.5929C85.1059 39.4951 85.1059 40.3993 85.1059 41.256Z" fill="currentColor"/>
</g>
<defs>
<clipPath id="clip0_58_26929">
<rect width="203.333" height="86.6667" fill="currentColor"/>
</clipPath>
</defs>
</svg>
