<svg width="200" height="58" viewBox="0 0 185 58" fill="currentColor" xmlns="http://www.w3.org/2000/svg">
<path d="M0.232727 16.9534C0.983119 16.4759 1.65519 15.9757 2.39042 15.5967C6.01858 13.7371 9.60631 11.7815 13.3178 10.1014C16.9334 8.46669 20.8167 7.8123 24.7809 8.25951C29.4626 8.78756 33.3258 10.973 36.292 14.634C38.7857 17.7089 40.1349 21.2865 40.7968 25.1774C41.1885 27.4766 41.3527 29.7733 41.2415 32.0851C41.0293 36.5344 40.193 40.8548 38.1894 44.8721C35.9635 49.334 32.6562 52.7853 28.1766 55.0112C26.2211 55.9839 24.124 56.608 21.9612 57.0375C16.4432 58.1315 11.0111 57.7525 5.60169 56.3402C4.67191 56.0976 4.26008 55.6226 4.2045 54.6903C4.09838 52.8864 3.95689 51.0849 3.79267 49.2835C3.70171 48.2804 3.5299 47.2849 3.41115 46.2844C3.36315 45.8802 3.36062 45.4709 3.33788 45.0818C4.00237 44.6851 4.56833 44.8418 5.13933 44.9807C6.07669 45.2056 7.00647 45.5239 7.95646 45.6023C9.29807 45.7134 9.85644 45.1879 9.82612 43.8387C9.75033 40.5163 9.63916 37.1913 9.44966 33.8739C9.32586 31.6935 9.0732 29.5181 8.81044 27.3503C8.66643 26.1577 8.38092 24.9804 8.1788 23.904C7.31471 23.5276 6.76392 23.7903 6.23839 24.187C5.50063 24.7454 4.77803 25.3215 4.02259 25.8546C3.58802 26.1603 3.10291 26.3978 2.5117 26.7414C2.30199 26.3624 2.07207 26.1097 2.01143 25.8217C1.42022 22.9414 0.854264 20.0586 0.232727 16.9534ZM31.489 29.7202C31.4334 28.6767 31.4485 27.6232 31.3096 26.5898C30.9988 24.3134 30.0842 22.3275 28.2549 20.8418C25.6778 18.7448 22.7495 17.8504 19.4549 18.4062C18.3078 18.5982 17.1886 18.9823 16.0718 19.3309C15.2886 19.5735 14.9778 20.1597 15.0233 20.9859C15.0991 22.3704 15.0991 23.7575 15.1825 25.1421C15.4477 29.46 15.7282 33.7779 16.0238 38.0933C16.1097 39.349 16.2259 40.6047 16.4078 41.8478C16.6403 43.4395 17.4362 44.0914 19.0026 43.7806C21.4433 43.298 23.7981 42.54 25.7814 40.9281C29.3414 38.0352 31.3197 34.359 31.489 29.7202Z" fill="currentColor"/>
<path d="M70.896 33.1665C71.5807 33.788 72.2376 34.3666 72.8769 34.9654C74.605 36.5774 76.6996 37.2014 79.0013 37.1989C80.2747 37.1964 81.2398 36.6127 81.8613 35.4606C82.4728 34.3287 82.5359 33.2271 81.8538 32.1129C80.9492 30.6399 79.6026 29.6318 78.2155 28.6717C76.1791 27.2568 74.0871 25.9152 72.0936 24.4422C70.1583 23.0122 68.3745 21.4053 67.3538 19.139C65.1885 14.3208 66.1284 8.34798 70.3149 4.88658C73.4049 2.33221 76.9472 0.980496 80.9265 0.737945C84.6001 0.515607 87.6522 1.94817 90.3051 4.35852C91.2021 5.17461 92.0687 6.03869 92.8494 6.96595C93.5695 7.81993 93.5846 8.52484 92.8747 9.3485C91.6392 10.7785 90.3304 12.1454 89.0065 13.4946C88.5189 13.9923 87.9731 13.9797 87.4072 13.53C87.0181 13.2192 86.7048 12.8099 86.3814 12.4284C85.2672 11.1196 84.0039 10.0812 82.2429 9.73002C80.2443 9.33082 78.1119 10.0989 77.2908 11.6275C76.2119 13.6336 76.4595 15.7837 78.1751 17.2491C79.4763 18.3608 80.977 19.24 82.4046 20.2027C84.6431 21.7135 86.7553 23.3558 88.4885 25.4605C90.5047 27.9087 91.5962 30.7284 91.9727 33.8411C92.3062 36.5925 92.1091 39.3035 91.0303 41.8882C89.3577 45.903 86.4824 48.6746 82.3843 50.183C79.2893 51.3224 76.1336 51.4917 72.9552 50.7186C69.9334 49.9808 67.2527 48.5003 64.7994 46.6053C64.5038 46.3779 64.2562 46.0773 64.0187 45.7842C63.5159 45.1601 63.4755 44.4881 63.8873 43.7958C65.7494 40.6502 67.6115 37.5021 69.4761 34.3565C69.7793 33.8411 70.133 33.3787 70.896 33.1665Z" fill="currentColor"/>
<path d="M100.371 29.4777C98.9107 31.5243 99.8885 34.4121 102.241 35.3293C104.962 36.393 107.718 36.6153 110.498 35.6704C111.354 35.3773 112.132 34.8442 112.941 34.4121C113.224 34.2605 113.492 34.0812 113.908 33.831C114.161 34.3313 114.424 34.7027 114.545 35.117C115.091 36.9716 115.606 38.8362 116.109 40.7033C116.228 41.1454 116.268 41.6129 116.326 42.0702C116.402 42.674 116.15 43.0909 115.642 43.4421C110.278 47.1637 103.608 46.8504 98.6429 43.6493C96.2805 42.1258 94.7873 39.8998 94.0471 37.2192C92.6448 32.1306 93.2739 27.2291 95.5782 22.512C96.7202 20.1724 98.2412 18.1511 100.353 16.5821C101.548 15.6928 102.903 15.2809 104.323 15.0965C107.966 14.6215 110.427 15.1192 113.027 19.1895C114.285 21.1603 115.149 23.3028 115.571 25.5994C115.978 27.8102 115.005 29.1164 112.726 29.2352C109.535 29.4045 106.336 29.412 103.14 29.4777C102.183 29.4954 101.223 29.4777 100.371 29.4777ZM101.554 25.1472C104.313 25.1952 106.839 25.367 109.32 24.609C109.214 23.1563 108.61 22.1178 107.789 21.1881C106.531 19.7656 104.889 19.9551 103.673 20.6903C102.071 21.658 101.844 23.2699 101.554 25.1472Z" fill="currentColor"/>
<path d="M126.291 20.4882C125.667 22.4412 125.056 24.316 124.467 26.1957C123.702 28.6389 123.631 31.0366 124.677 33.4596C125.394 35.1196 126.632 35.9205 128.318 36.1833C129.988 36.4435 131.339 35.8018 132.262 34.4602C133.724 32.3252 134.293 29.93 133.704 27.3731C133.151 24.9628 132.489 22.5777 131.835 20.0132C132.178 19.8667 132.562 19.6266 132.979 19.5357C134.581 19.1921 136.188 18.8788 137.8 18.5882C138.836 18.4013 139.23 18.6463 139.48 19.7858C139.884 21.6327 140.266 23.4872 140.534 25.3569C141.044 28.9244 141.034 32.4869 140.054 35.9938C139.182 39.1116 137.711 41.8377 134.955 43.715C131.299 46.2062 127.57 46.1759 123.79 44.0333C119.876 41.815 117.868 38.3485 117.193 33.9852C116.635 30.3696 116.991 26.8628 118.262 23.4392C118.775 22.0597 119.252 20.6701 119.768 19.2931C120.094 18.4265 120.437 18.1663 121.162 18.4114C122.83 18.9773 124.472 19.6266 126.119 20.2507C126.185 20.2836 126.218 20.3871 126.291 20.4882Z" fill="currentColor"/>
<path d="M158.747 23.0982C157.969 24.4625 156.779 25.4302 155.642 26.5368C155.238 26.2968 154.922 26.1048 154.599 25.9229C154.273 25.741 153.954 25.5237 153.603 25.4075C152.398 25.0057 151.486 25.2584 150.9 26.1099C150.367 26.8855 150.435 28.0654 151.249 28.8866C152.608 30.261 154.025 31.5799 155.475 32.8558C158.747 35.731 159.23 38.9903 157.704 42.8939C156.552 45.8424 154.467 47.9445 151.264 48.5408C148.328 49.089 145.468 48.6924 142.893 47.0602C141.979 46.4816 141.15 45.754 140.324 45.049C139.846 44.6397 139.849 44.1041 140.177 43.5634C141.071 42.0955 141.956 40.62 142.853 39.152C142.959 38.9777 143.126 38.8413 143.371 38.5684C143.752 38.768 144.159 38.9347 144.515 39.1773C145 39.5057 145.437 39.9049 145.912 40.2511C146.595 40.7513 147.378 40.865 148.196 40.7513C149.513 40.5694 150.293 39.7155 150.384 38.3865C150.48 36.9691 149.856 35.8498 148.853 34.9402C147.764 33.9523 146.572 33.0756 145.513 32.0599C143.585 30.2054 142.699 27.9593 143.535 25.3089C144.556 22.0699 147.325 18.8712 151.812 18.9874C154.846 19.0683 157.188 20.3518 158.747 23.0982Z" fill="currentColor"/>
<path d="M161.221 42.2924C161.926 42.679 162.451 43.0074 163.012 43.2651C163.811 43.6315 164.606 44.0458 165.45 44.2555C166.65 44.5537 167.669 44.1621 168.434 43.1236C169.169 42.1282 169.172 41.1201 168.684 40.0387C168.139 38.831 167.146 38.0579 166.102 37.3403C164.455 36.2109 163 34.8921 161.928 33.1917C161.249 32.1128 160.776 30.9607 160.65 29.6722C160.382 26.898 162.307 23.8004 164.92 22.671C168.288 21.2132 171.494 21.6124 174.422 23.8333C175.183 24.4118 175.872 25.1117 176.489 25.8469C177.174 26.6605 177.09 27.2062 176.325 27.9213C175.617 28.5807 174.895 29.2224 174.152 29.8414C173.844 30.0992 173.465 30.2735 173.103 30.4933C172.54 30.0284 172.1 29.5585 171.567 29.2502C170.852 28.8359 170.094 28.4316 169.301 28.2295C168.351 27.9869 167.563 28.472 167.06 29.2831C166.567 30.0764 166.623 30.9632 167.191 31.6505C167.906 32.512 168.707 33.3357 169.596 34.0128C171.062 35.1321 172.676 36.0593 174.142 37.1811C176.034 38.6263 176.785 40.6046 176.456 42.967C176.1 45.5315 175.163 47.818 173.293 49.6826C171.304 51.666 168.909 52.3962 166.16 52.1132C164.043 51.8959 162.05 51.2693 160.18 50.2612C159.814 50.0641 159.467 49.8115 159.162 49.531C158.31 48.7579 158.255 48.2273 158.773 47.1864C159.389 45.9483 159.965 44.6901 160.569 43.447C160.723 43.1211 160.923 42.8103 161.221 42.2924Z" fill="currentColor"/>
<path d="M42.1285 48.6114C42.1032 48.1541 41.9643 47.6867 42.0754 47.2951C42.9294 44.3339 43.2857 41.2818 43.6293 38.2398C43.839 36.3727 44.1472 34.4828 43.7935 32.5879C43.7329 32.2594 43.7607 31.9158 43.743 31.5798C43.5813 28.558 43.417 25.5388 43.2604 22.517C43.2402 22.1051 43.2579 21.6933 43.2579 21.2082C45.5141 20.382 47.7249 19.854 50.0341 19.8262C51.0321 20.8216 50.8603 22.1355 51.2039 23.2674C51.7396 23.7272 52.2676 23.3912 52.7578 23.2345C53.968 22.8454 55.1883 22.5776 56.4693 22.618C57.9196 22.6635 59.1904 23.1638 60.2364 24.1466C60.9363 24.806 61.6008 25.516 62.1718 26.2866C62.4068 26.6024 62.5154 27.1911 62.3941 27.56C61.7928 29.4145 60.3931 30.5767 58.7028 31.648C58.3036 31.1629 57.9474 30.7662 57.6341 30.3367C56.5072 28.793 54.8801 28.3432 53.0989 28.3129C52.634 28.3054 52.1666 28.5757 51.6309 28.7374C51.6309 29.4347 51.6309 30.0158 51.6309 30.5995C51.6309 31.9866 51.5905 33.3762 51.636 34.7633C51.7472 38.351 51.2191 41.8907 50.8224 45.438C50.734 46.2238 50.4738 46.9919 50.2868 47.7675C50.1807 48.2122 49.9255 48.5887 49.453 48.5963C47.0679 48.6266 44.6803 48.6114 42.1285 48.6114Z" fill="currentColor"/>
<path d="M58.574 38.5355C59.9409 38.4976 61.3785 39.9858 61.4518 41.5118C61.5301 43.1389 59.7943 44.8747 58.0586 44.9025C56.5426 44.9277 55.4486 43.8817 55.3653 41.7594C55.2718 39.4956 56.6917 38.7376 58.574 38.5355Z" fill="currentColor"/>
<path d="M184.435 29.0811C184.021 29.0255 183.781 28.9952 183.498 28.9573C183.437 28.5404 183.382 28.1589 183.323 27.7673C182.859 28.0881 183.063 29.028 182.116 28.9219C181.962 28.5606 181.805 28.1867 181.59 27.6839C181.484 28.1336 181.403 28.4798 181.322 28.8234C180.602 28.9573 180.425 28.5909 180.466 28.0502C180.516 27.3857 180.605 26.7213 180.686 25.9481C180.251 26.0921 179.923 26.2008 179.559 26.3221C179.483 27.0826 179.407 27.8228 179.326 28.6415C178.955 28.6415 178.649 28.6415 178.194 28.6415C178.24 27.7875 178.28 27.0118 178.318 26.3069C178.182 25.8496 177.219 26.0871 177.666 25.2382C179.127 24.8945 180.59 25.4479 182.111 25.415C182.293 25.7157 182.459 25.9936 182.679 26.3574C182.917 26.0568 183.136 25.7814 183.417 25.4302C183.796 25.4883 184.193 25.5489 184.761 25.6348C184.645 26.8299 184.544 27.9239 184.435 29.0811Z" fill="currentColor"/>
</svg>
