<svg width="200" height="72" viewBox="0 0 154 72" fill="currentColor" xmlns="http://www.w3.org/2000/svg">
<path d="M15.939 0.0459228C14.2697 1.13447 14.2697 1.13447 13.8585 4.20399C13.066 4.44916 12.9355 4.6077 13.0841 5.44945C13.1568 5.8646 13.3879 6.25197 13.5399 6.65568C13.5778 6.75702 13.6158 6.87307 13.6042 6.97767C13.5365 7.56771 13.4705 8.15775 13.3698 8.74125C13.2823 9.24467 12.9751 9.56666 12.4501 9.65492C12.3031 9.67944 12.1545 9.70559 12.0075 9.72683C10.8517 9.89845 9.69423 10.0652 8.5384 10.2401C7.51466 10.3953 6.64449 10.871 6.08804 11.716C5.30702 12.8993 4.56399 14.117 3.93158 15.3821C3.17369 16.9005 2.52477 18.4761 1.87585 20.0452C1.34747 21.3233 0.865326 22.6227 0.4129 23.9303C0.308875 24.2294 0.374923 24.6086 0.437668 24.9355C0.511972 25.3212 0.688649 25.6841 0.782766 26.0682C0.873582 26.4392 1.08824 26.6582 1.46141 26.6893C2.12188 26.7448 2.78566 26.7759 3.48081 26.8184C3.6129 27.2041 3.56667 27.5277 3.21497 27.8105C2.66512 28.2551 2.3547 28.8402 2.2127 29.53C1.91713 30.9699 1.49608 32.423 1.93034 33.8776C2.25232 34.9596 2.7708 35.9861 3.22653 37.0272C3.7483 38.2204 4.28659 39.407 4.84304 40.5838C4.91569 40.7391 5.14521 40.9222 5.30207 40.9222C6.16399 40.9205 6.61311 41.3389 7.03582 42.0826C8.44098 44.5588 9.99145 46.9664 11.92 49.0732C14.3473 51.7243 16.9099 54.2544 20.0257 56.1504C20.1958 56.255 20.351 56.4332 20.4385 56.613C20.6499 57.0412 20.8265 57.4874 20.9933 57.9369C21.0379 58.0562 21.0495 58.2458 20.9834 58.339C20.6978 58.7378 20.782 59.13 20.9768 59.5092C21.2856 60.1124 21.6422 60.691 21.9411 61.2973C22.2102 61.8449 22.448 62.4088 22.6561 62.9808C22.7287 63.1802 22.7238 63.4434 22.6594 63.6493C22.5405 64.0253 22.6396 64.3113 22.8476 64.6202C22.9813 64.8212 23.1134 65.0893 23.0969 65.3148C23.0094 66.5309 22.8691 67.7437 22.7601 68.9581C22.7254 69.352 22.7023 69.7491 22.7172 70.143C22.7436 70.8736 23.0358 71.4833 23.7409 71.9606C23.5345 71.9785 23.4173 71.9965 23.2984 71.9965C17.5291 71.9982 11.7599 72.0047 5.98897 71.9949C2.74933 71.99 0.137152 69.4795 0.00670775 66.2743C0.00175419 66.1272 0.000102997 65.9784 0.000102997 65.8297C0.000102997 45.9579 0.000102997 26.0862 0.000102997 6.21438C0.000102997 3.36388 1.62983 1.09852 4.26843 0.310705C4.75718 0.165238 5.2806 0.0589985 5.78752 0.0557295C9.13943 0.0344816 12.4913 0.0459228 15.939 0.0459228ZM3.76977 57.373C3.76977 61.0342 3.76977 64.6382 3.76977 68.2503C3.91177 68.265 4.00919 68.2847 4.10826 68.283C5.27235 68.2683 5.09732 68.4367 5.10228 67.3367C5.11218 65.1628 5.10558 62.989 5.10558 60.91C5.12209 60.9933 5.16502 61.1829 5.1997 61.3725C5.60424 63.5447 6.00383 65.7169 6.42158 67.8859C6.44965 68.0297 6.59825 68.2552 6.70393 68.2634C7.26203 68.301 7.82344 68.2814 8.3997 68.2814C8.3997 64.6071 8.3997 61.0031 8.3997 57.3746C7.95388 57.3746 7.54273 57.3746 7.01105 57.3746C7.09196 59.9505 7.17287 62.5052 7.25378 65.086C6.77988 62.5052 6.3093 59.9473 5.83706 57.3746C5.132 57.373 4.47152 57.373 3.76977 57.373ZM9.39537 68.2552C10.2986 68.2552 11.1654 68.3174 12.0208 68.2373C12.782 68.167 13.3615 67.6766 13.4441 66.915C13.5927 65.5469 13.9114 64.1315 13.0511 62.9923C13.2327 62.4954 13.4837 62.0802 13.5184 61.6471C13.5877 60.7956 13.5729 59.9309 13.5283 59.0761C13.4804 58.169 12.9553 57.5087 12.0967 57.4171C11.2133 57.3223 10.3134 57.3959 9.39537 57.3959C9.39537 61.0064 9.39537 64.599 9.39537 68.2552ZM18.7262 68.2552C18.2953 64.5924 17.8726 60.9966 17.4433 57.3469C16.8604 57.3469 16.3138 57.3714 15.769 57.3387C15.3545 57.3125 15.2406 57.4694 15.196 57.8617C14.8922 60.4965 14.5586 63.1279 14.24 65.7594C14.1392 66.5848 14.0517 67.4102 13.9526 68.283C14.2862 68.283 14.5339 68.283 14.7815 68.283C15.5163 68.283 15.5081 68.283 15.5543 67.5786C15.5873 67.0915 15.6451 66.6061 15.693 66.1255C16.1223 66.1255 16.5004 66.1255 16.9182 66.1255C16.9875 66.8463 17.0536 67.5442 17.1229 68.2552C17.6662 68.2552 18.1582 68.2552 18.7262 68.2552Z" fill="currentColor"/>
<path d="M95.0125 71.975C95.4005 70.9192 95.7539 69.9483 96.1138 68.9791C99.9793 58.5855 103.848 48.1936 107.702 37.7952C107.857 37.3768 108.049 37.2395 108.509 37.2411C115.296 37.2591 122.08 37.2542 128.867 37.2542C129.048 37.2542 129.232 37.2542 129.494 37.2542C129.395 37.5222 129.318 37.7462 129.232 37.9684C124.95 49.14 120.665 60.3099 116.392 71.4847C116.253 71.8459 116.088 71.9865 115.68 71.9865C108.978 71.9718 102.276 71.9767 95.5739 71.9767C95.4137 71.975 95.2519 71.975 95.0125 71.975ZM119.528 43.8165C119.259 43.8165 119.079 43.8165 118.899 43.8165C117.115 43.8165 115.332 43.8329 113.549 43.8051C113.111 43.7986 112.918 43.926 112.764 44.3363C110.621 50.0765 108.456 55.8086 106.3 61.5439C105.826 62.8041 105.357 64.0675 104.87 65.3702C105.068 65.38 105.212 65.3947 105.356 65.3947C107.205 65.3963 109.056 65.3849 110.905 65.4061C111.257 65.4094 111.384 65.2835 111.5 64.9795C113.46 59.7852 115.429 54.5958 117.399 49.4064C118.094 47.5742 118.793 45.7452 119.528 43.8165Z" fill="currentColor"/>
<path d="M92.404 0.0456428C92.0837 1.02959 91.7749 1.98248 91.4612 2.9321C88.0597 13.257 84.655 23.5819 81.2601 33.91C81.1512 34.2418 81.0108 34.371 80.6393 34.3693C73.985 34.3562 67.3324 34.3611 60.6781 34.3595C60.5328 34.3595 60.3858 34.3464 60.1679 34.335C60.4585 33.4181 60.7359 32.5436 61.0133 31.6708C63.8351 22.7859 66.657 13.901 69.4789 5.01604C69.9677 3.47801 70.4647 1.94162 70.9452 0.400321C71.0277 0.132269 71.1268 -0.00012207 71.4504 -0.00012207C78.3045 0.00968469 85.1586 0.00805023 92.0127 0.0096847C92.1266 0.0096847 92.2389 0.0292982 92.404 0.0456428ZM69.5483 27.8495C71.5429 27.8495 73.4599 27.8298 75.3753 27.8642C75.8591 27.8723 76.0226 27.704 76.1596 27.279C78.1675 21.0583 80.1935 14.8441 82.2145 8.62656C82.4358 7.94826 82.6488 7.26833 82.8783 6.5508C82.6537 6.54099 82.5051 6.52791 82.3582 6.52791C80.5419 6.52628 78.7239 6.53936 76.9076 6.51811C76.5229 6.5132 76.366 6.63742 76.2521 6.997C74.6306 12.0785 72.9943 17.1552 71.3596 22.2318C70.7635 24.0771 70.1691 25.9241 69.5483 27.8495Z" fill="currentColor"/>
<path d="M70.871 71.9439C71.2309 70.9387 71.5711 69.9809 71.9145 69.0247C75.6627 58.5707 79.4126 48.1184 83.1608 37.6643C83.2384 37.4486 83.2698 37.2459 83.6 37.2492C85.9183 37.2639 88.2349 37.2574 90.5531 37.259C90.6142 37.259 90.6753 37.2803 90.7827 37.2999C89.0687 42.0284 87.3631 46.7323 85.6392 51.4903C85.8473 51.5033 86.0041 51.5213 86.161 51.5213C87.9459 51.5229 89.7292 51.5099 91.5141 51.5327C91.8972 51.5376 92.0607 51.4134 92.1878 51.062C93.7763 46.6784 95.3928 42.3046 96.9713 37.9177C97.1596 37.3963 97.394 37.2296 97.9554 37.241C100.006 37.2819 102.057 37.2574 104.108 37.2574C104.288 37.2574 104.468 37.2574 104.719 37.2574C104.341 38.2887 103.987 39.2596 103.629 40.2288C99.7668 50.6599 95.9047 61.0911 92.0425 71.5222C91.9501 71.7723 91.8873 71.9897 91.5125 71.9864C89.2949 71.9668 87.0774 71.9766 84.8598 71.9749C84.7789 71.9749 84.698 71.957 84.5362 71.939C86.2254 67.32 87.9013 62.7386 89.5971 58.1033C89.3742 58.0918 89.2157 58.0755 89.0572 58.0755C87.2904 58.0739 85.522 58.0869 83.7552 58.0641C83.3771 58.0592 83.1988 58.1703 83.0716 58.525C81.5145 62.8514 79.9393 67.1696 78.3855 71.4977C78.26 71.8458 78.1213 71.9897 77.73 71.9864C75.6132 71.9668 73.4947 71.9782 71.3762 71.9766C71.2326 71.9733 71.0856 71.957 70.871 71.9439Z" fill="currentColor"/>
<path d="M47.2057 71.975C47.7671 70.2539 48.3004 68.6293 48.8271 67.003C49.4117 65.2002 49.9945 63.3973 50.5708 61.5913C50.6534 61.3297 50.7524 61.1761 51.0794 61.1794C53.2474 61.1941 55.4154 61.1876 57.5834 61.1892C57.6478 61.1892 57.7139 61.2039 57.8542 61.2202C57.3737 62.6014 56.9031 63.9563 56.416 65.3587C56.6076 65.3734 56.7479 65.393 56.8899 65.393C58.7244 65.3947 60.5588 65.3832 62.3933 65.4028C62.7533 65.4061 62.9101 65.29 63.0373 64.9615C63.6532 63.3614 64.2905 61.7678 64.9428 60.1807C65.0782 59.8522 65.0369 59.6675 64.7545 59.4338C61.3977 56.6683 58.0606 53.8815 54.7004 51.1209C54.3025 50.794 54.2348 50.5374 54.4049 50.0471C55.8431 45.907 57.2449 41.7554 58.6534 37.6072C58.7277 37.3898 58.7987 37.246 59.086 37.246C65.9566 37.2574 72.8272 37.2574 79.6978 37.2607C79.7126 37.2607 79.7292 37.2705 79.8002 37.2966C79.7556 37.4535 79.7192 37.6186 79.6631 37.7772C78.5634 40.8663 77.4522 43.9522 76.3673 47.0462C76.2319 47.4336 76.0619 47.5741 75.6342 47.5692C73.5174 47.5447 71.4006 47.5578 69.1847 47.5578C69.6156 46.3254 70.0284 45.1404 70.4544 43.9178C70.2976 43.9031 70.1737 43.8802 70.0482 43.8802C68.08 43.8786 66.1118 43.8868 64.1452 43.8704C63.8282 43.8688 63.6746 43.9538 63.5756 44.2611C63.1496 45.5948 62.7054 46.9236 62.2513 48.2492C62.1605 48.5139 62.1671 48.679 62.4098 48.8817C65.7172 51.6537 69.0096 54.4438 72.3186 57.2125C72.6241 57.4675 72.6885 57.6686 72.5564 58.0412C70.9878 62.4837 69.4307 66.931 67.8934 71.3833C67.7399 71.8263 67.545 71.9832 67.0596 71.9815C60.6563 71.9636 54.2513 71.9701 47.848 71.9701C47.6631 71.975 47.4814 71.975 47.2057 71.975Z" fill="currentColor"/>
<path d="M116.186 0.0343637C115.27 2.70834 114.373 5.32511 113.478 7.94025C111.52 13.6592 109.56 19.3749 107.615 25.0988C107.483 25.4878 107.313 25.6251 106.888 25.6235C102.937 25.6055 98.9874 25.6186 95.0361 25.6039C94.6382 25.6022 94.4665 25.7085 94.3393 26.0991C93.4972 28.6832 92.6122 31.2526 91.7684 33.835C91.6314 34.2567 91.4332 34.3777 90.994 34.3727C88.9779 34.3466 86.9601 34.3613 84.9424 34.3613C84.7624 34.3613 84.5841 34.3613 84.3199 34.3613C84.5593 33.6111 84.7723 32.9263 84.9969 32.2463C87.9855 23.2257 90.9742 14.2068 93.9727 5.19109C94.0404 4.99005 94.1923 4.77757 94.3641 4.65662C96.4809 3.16599 98.6076 1.6868 100.739 0.217423C100.904 0.103011 101.131 0.0196536 101.329 0.0180191C106.18 0.00657787 111.031 0.00984679 115.882 0.0114812C115.965 0.00984679 116.046 0.0229225 116.186 0.0343637ZM96.7088 19.0497C98.5003 19.0497 100.198 19.0366 101.893 19.0595C102.267 19.0644 102.394 18.9287 102.504 18.5969C103.642 15.1956 104.801 11.8008 105.952 8.4028C106.155 7.80132 106.35 7.19657 106.568 6.52971C106.319 6.52971 106.139 6.52971 105.959 6.52971C104.476 6.52971 102.993 6.55423 101.512 6.515C101.015 6.50192 100.83 6.68498 100.688 7.12139C99.7965 9.84276 98.8784 12.5543 97.9703 15.2692C97.5608 16.4967 97.1513 17.7258 96.7088 19.0497Z" fill="currentColor"/>
<path d="M126.019 71.975C129.683 62.5556 133.311 53.2277 136.966 43.8328C134.615 43.8328 132.356 43.8328 130.007 43.8328C130.236 43.2232 130.436 42.6789 130.646 42.1362C131.225 40.6293 131.813 39.1256 132.386 37.6153C132.477 37.3767 132.569 37.2459 132.868 37.2476C139.787 37.259 146.707 37.2574 153.625 37.259C153.658 37.259 153.691 37.2688 153.774 37.2835C153.734 37.4176 153.704 37.5516 153.655 37.6758C152.899 39.5914 152.131 41.5053 151.388 43.4258C151.262 43.7495 151.084 43.8246 150.759 43.823C148.825 43.8083 146.89 43.8263 144.956 43.8067C144.595 43.8034 144.438 43.9243 144.311 44.2496C140.781 53.2571 137.234 62.2581 133.715 71.2689C133.5 71.8197 133.238 72.0011 132.647 71.988C130.647 71.9472 128.646 71.9733 126.645 71.9733C126.465 71.975 126.288 71.975 126.019 71.975Z" fill="currentColor"/>
<path d="M43.3354 34.3611C46.2035 25.0594 49.0502 15.8329 51.915 6.54262C49.5918 6.54262 47.3462 6.54262 45.0246 6.54262C45.1947 5.98364 45.3466 5.4884 45.4968 4.99152C45.9542 3.47801 46.4116 1.96613 46.8657 0.452623C46.9449 0.19111 47.0159 -0.00012207 47.3841 -0.00012207C54.1854 0.0129536 60.9866 0.00968469 67.7879 0.0113192C67.8539 0.0113192 67.9183 0.0211259 68.0537 0.0325671C67.8259 0.75173 67.603 1.44638 67.385 2.14102C66.9738 3.44369 66.5511 4.74308 66.1648 6.05392C66.0574 6.41677 65.8989 6.54262 65.5109 6.53772C63.6616 6.51647 61.8106 6.54426 59.9596 6.51647C59.4973 6.50993 59.3008 6.63906 59.1621 7.08526C56.4376 15.859 53.6933 24.6279 50.954 33.3968C50.6518 34.3611 50.6502 34.3611 49.6248 34.3611C47.5575 34.3611 45.4919 34.3611 43.3354 34.3611Z" fill="currentColor"/>
<path d="M29.9344 39.2204C29.9344 39.4296 29.9344 39.5685 29.9344 39.7091C29.9344 48.5041 29.9378 57.2992 29.9328 66.0942C29.9311 68.9643 27.9216 71.3522 25.0932 71.8818C25.0932 71.8557 25.0833 71.8164 25.0948 71.8083C26.2837 70.9109 26.4983 69.7014 26.1912 68.3497C26.0492 67.7237 25.8296 67.1174 25.6463 66.4995C25.5093 66.0353 25.2401 65.5957 25.4416 65.0743C25.4861 64.9582 25.4135 64.7817 25.3607 64.6477C24.6639 62.9005 24.4063 61.1205 25.0205 59.2981C25.3458 58.3338 25.1988 57.4348 24.5631 56.6911C23.7161 55.699 23.5229 54.5255 23.3346 53.316C23.1332 52.0133 22.9301 50.7057 22.6197 49.426C22.4248 48.6185 22.159 47.7784 21.7099 47.0903C20.4319 45.1388 19.8374 43.0336 19.6145 40.729C19.4296 38.8216 18.9144 36.9436 18.5346 35.0558C18.4785 34.7779 18.3596 34.5311 18.6502 34.2974C18.7245 34.2369 18.7196 34.0179 18.6832 33.892C18.1251 31.9242 17.5654 29.9579 16.9858 27.9965C16.8141 27.4163 16.5185 26.908 15.9588 26.586C15.8581 26.5288 15.7639 26.3572 15.7689 26.2411C15.7755 26.0156 15.825 25.7818 15.9076 25.5694C16.3699 24.368 16.8207 23.1618 17.3375 21.9817C17.4993 21.614 17.8065 21.2707 18.1301 21.0207C18.6354 20.63 19.21 20.3277 19.8242 19.9452C20.2568 22.052 20.5045 24.1131 21.1287 26.0548C21.7545 27.9998 22.7584 29.8255 23.6038 31.7198C20.9041 32.6695 19.3999 34.5017 19.56 37.3816C19.6872 39.678 21.3235 41.5397 23.4816 42.1216C25.9666 42.7884 27.887 41.9401 29.9344 39.2204Z" fill="currentColor"/>
<path d="M29.8204 34.6672C29.6272 34.2733 29.434 33.8794 29.2392 33.4871C29.2029 33.4135 29.1798 33.3008 29.122 33.2746C28.4136 32.969 28.0603 32.1468 27.2479 32.0063C26.9011 31.9458 26.7211 31.7627 26.665 31.4326C26.594 31.0093 26.5445 30.581 26.4388 30.1675C26.1878 29.1819 26.0557 28.131 25.6066 27.2386C24.8784 25.7937 24.5647 24.2736 24.2163 22.7258C23.9026 21.3349 24.066 19.9292 23.8316 18.553C23.683 17.6802 23.4964 16.8025 23.214 15.964C22.8442 14.8706 22.0896 14.0403 21.1335 13.3734C20.5077 12.937 19.8373 12.5774 19.3222 11.9531C18.9688 11.5232 18.3248 11.3205 17.7981 11.041C17.2846 10.7681 17.2417 10.3252 17.7106 9.97865C17.8691 9.86097 18.0441 9.73511 18.1399 9.57167C18.6914 8.64656 19.3734 7.81626 20.014 6.95489C20.3195 6.54464 20.6844 6.0919 20.2501 5.51984C20.1989 5.45282 20.3096 5.24688 20.3707 5.11776C20.7339 4.34139 20.9701 3.54051 20.8495 2.67588C20.7719 2.11852 20.5853 1.61675 20.0173 1.3536C19.9579 1.32581 19.905 1.28168 19.8572 1.23755C19.4196 0.830569 18.9837 0.421954 18.5692 0.0362215C19.4856 0.0362215 20.4945 0.0247803 21.5017 0.0394904C22.651 0.055835 23.8118 -0.00137108 24.9445 0.147365C27.7086 0.513484 29.9162 3.01094 29.9228 5.76991C29.9443 15.3429 29.9311 24.916 29.9311 34.489C29.9311 34.5381 29.9195 34.5871 29.9145 34.6361C29.8848 34.6459 29.8518 34.6574 29.8204 34.6672Z" fill="currentColor"/>
<path d="M10.9342 62.2532C10.9342 61.1108 10.9342 59.9961 10.9342 58.8879C11.7268 58.646 12.0108 58.8405 12.0174 59.6201C12.0223 60.2281 12.0223 60.8362 12.0174 61.4442C12.0108 62.2712 11.8621 62.3873 10.9342 62.2532Z" fill="currentColor"/>
<path d="M10.9181 66.7988C10.9181 65.8083 10.9082 64.8407 10.933 63.8747C10.9363 63.775 11.1477 63.6165 11.2781 63.6001C11.5753 63.5625 11.9584 63.574 11.9799 63.963C12.0244 64.7818 12.0211 65.6072 11.9832 66.4277C11.965 66.7939 11.6727 66.8805 10.9181 66.7988Z" fill="currentColor"/>
<path d="M16.2992 58.9498C16.4726 60.867 16.6476 62.7826 16.8243 64.7407C16.4709 64.7407 16.1655 64.7407 15.7972 64.7407C15.9508 62.8039 16.106 60.8719 16.2596 58.9417C16.2728 58.9433 16.286 58.9466 16.2992 58.9498Z" fill="currentColor"/>
</svg>
