<svg width="200" height="65" viewBox="0 0 186 65" fill="currentColor" xmlns="http://www.w3.org/2000/svg">
<path d="M15.8068 0.27254C23.0494 0.27254 30.2798 0.27254 37.5601 0.27254C37.4142 0.813152 37.2755 1.33933 37.1303 1.86262C32.9297 16.9788 28.7277 32.0943 24.5272 47.2106C24.2455 48.2247 24.5719 49.0345 25.482 49.5737C26.054 49.9122 26.6845 50.0674 27.3417 50.0724C28.9422 50.0847 30.5435 50.1042 32.1425 50.0602C32.8084 50.0421 33.483 49.9216 34.1294 49.7548C35.0965 49.5051 35.6136 48.7696 35.8729 47.8558C36.6255 45.2019 37.36 42.5428 38.0996 39.8845C41.7404 26.79 45.3805 13.6962 49.0184 0.601671C49.0762 0.393799 49.1246 0.253052 49.4099 0.253052C56.4973 0.263157 63.5847 0.260991 70.6713 0.261713C70.719 0.261713 70.7667 0.266766 70.8606 0.271818C70.7342 0.740253 70.6143 1.1957 70.4886 1.64969C65.6337 19.1117 60.7809 36.5737 55.9159 54.0321C55.627 55.07 55.3034 56.1065 54.8896 57.0997C53.5325 60.3556 51.1036 62.3636 47.665 63.1864C45.5972 63.6816 43.4991 63.9198 41.3858 64.0425C40.2461 64.1081 39.102 64.1175 37.9602 64.1183C29.4651 64.124 20.9701 64.1623 12.4751 64.1002C9.33403 64.0771 6.34756 63.3135 3.78576 61.3596C2.30516 60.23 1.26296 58.7785 0.901835 56.9279C0.677217 55.7759 0.720552 54.6066 1.03689 53.4641C3.16318 45.7879 5.29091 38.1133 7.42153 30.4386C10.1812 20.499 12.9438 10.5601 15.7049 0.620437C15.7367 0.506396 15.7714 0.393077 15.8068 0.27254Z" fill="currentColor"/>
<path d="M185.289 0.261448C185.009 1.30514 184.746 2.31347 184.467 3.31746C183.494 6.83108 182.51 10.3418 181.545 13.8576C181.457 14.1781 181.338 14.2899 180.99 14.2892C173.446 14.2777 165.903 14.2755 158.359 14.2871C157.521 14.2885 156.678 14.352 155.844 14.4444C154.497 14.5931 153.73 15.4123 153.378 16.6819C151.979 21.7329 150.575 26.7825 149.174 31.8321C147.759 36.9278 146.343 42.0243 144.93 47.1208C144.575 48.3983 145.047 49.3684 146.321 49.777C146.937 49.9747 147.613 50.07 148.263 50.0714C156.42 50.0902 164.577 50.0837 172.735 50.0837C172.889 50.0837 173.043 50.0837 173.236 50.0837C171.931 54.7832 170.636 59.4473 169.337 64.1216C169.176 64.1216 169.045 64.1216 168.912 64.1216C157.242 64.1216 145.572 64.1512 133.902 64.1014C130.838 64.0884 127.915 63.3565 125.381 61.5095C123.738 60.312 122.622 58.7458 122.243 56.7154C122.02 55.5201 122.181 54.3487 122.503 53.191C126.542 38.6659 130.576 24.1393 134.628 9.61715C134.881 8.70771 135.208 7.80981 135.593 6.94801C136.966 3.87973 139.332 1.99877 142.592 1.19687C144.608 0.700289 146.657 0.451276 148.723 0.335069C149.815 0.273718 150.911 0.264335 152.004 0.264335C162.929 0.259282 173.853 0.261448 184.777 0.261448C184.932 0.261448 185.086 0.261448 185.289 0.261448Z" fill="currentColor"/>
<path d="M85.2596 64.1099C78.0047 64.1099 70.7757 64.1099 63.5078 64.1099C67.2252 50.7281 70.9375 37.3629 74.652 23.9934C90.3413 23.9934 106.004 23.9934 121.71 23.9934C121.477 24.8437 121.25 25.673 121.021 26.5016C119.991 30.2115 118.956 33.9193 117.935 37.6314C117.851 37.936 117.729 38.0356 117.399 38.0356C109.266 38.0241 101.132 38.0298 92.9992 38.0169C92.6142 38.0161 92.4741 38.1258 92.3723 38.4954C90.0459 46.9236 87.7051 55.3475 85.3658 63.7721C85.3362 63.8753 85.3015 63.9771 85.2596 64.1099Z" fill="currentColor"/>
<path d="M77.3622 14.2799C77.844 12.5375 78.304 10.863 78.7692 9.18915C79.5593 6.34678 80.3559 3.50586 81.1381 0.661324C81.2205 0.363229 81.3339 0.252075 81.6675 0.252075C97.0788 0.262902 112.49 0.261458 127.901 0.261458C128.02 0.261458 128.139 0.261458 128.307 0.261458C128.142 0.85837 127.988 1.42136 127.831 1.98362C126.729 5.94691 125.622 9.90804 124.534 13.8749C124.442 14.2135 124.297 14.2878 123.97 14.2878C108.583 14.2799 93.196 14.2806 77.8093 14.2806C77.6793 14.2799 77.5486 14.2799 77.3622 14.2799Z" fill="currentColor"/>
</svg>
