<svg width="150" height="107" viewBox="0 0 78 107" fill="currentColor" xmlns="http://www.w3.org/2000/svg">
<path d="M23.8064 69.0176V53.3238L21.8356 52.2048V48.1285H30.7738V52.207L28.9001 53.326V85.336L24.1021 83.8883L17.17 63.4251V76.9142L19.3726 78.5915V82.7362L9.77883 80.3019V76.7487L11.9792 75.8924V53.2929L9.74573 52.207V48.1285H17.0067L23.8064 69.0176ZM40.2661 83.363L42.1729 85.6649V89.7434L32.6432 86.1901V82.7362L34.7464 81.8799V53.3591L32.6432 52.3064V48.1947H49.1712V56.4864H45.5231L44.4064 53.0987H40.1998V62.6725H43.3536L44.6028 60.8628H47.132V69.3178H44.6028L43.4198 67.6073H40.1998V83.3652L40.2661 83.363ZM50.7823 84.8108V80.7323L53.1482 78.7901V53.326L51.1443 52.2733V48.1616H60.6718V52.2733L58.7981 53.326V77.2099L62.9053 76.091L63.6932 69.8408H67.5708V80.3019L50.7823 84.8108Z" fill="currentColor"/>
<path fill-rule="evenodd" clip-rule="evenodd" d="M74.8007 14.9002C74.8007 14.9002 67.0785 20.9208 56.2356 18.1908C43.5852 15.0326 38.657 5.5249 38.657 5.5249C38.657 5.5249 33.7288 15.0326 21.0784 18.1908C10.2355 20.9208 2.51331 14.9002 2.51331 14.9002V77.9006C2.51331 80.0392 3.40051 89.1187 20.3545 91.5861C27.0571 92.5395 32.0515 94.7112 35.6335 98.1651C36.9157 99.4165 37.9 100.666 38.657 101.818C39.4118 100.666 40.3983 99.3834 41.6806 98.1651C45.2625 94.7112 50.2569 92.5395 56.9595 91.5861C73.9135 89.1187 74.8007 80.0392 74.8007 77.9006V14.9002ZM38.6574 95.4373C38.6574 95.4373 43.5855 89.3836 56.3353 87.4105C70.6646 85.1849 70.5416 78.5375 70.5309 77.9634L70.5306 77.936V44.9041H6.75324V77.9007L6.75284 77.9308C6.74212 78.5411 6.6255 85.183 20.9485 87.3752C33.7292 89.3505 38.6574 95.4373 38.6574 95.4373ZM5.5375 35.9548L8.42865 38.1264L7.31191 41.5142L10.17 39.508L13.028 41.5142L11.9775 38.1264L14.8686 35.9548H11.3529L10.2031 32.5979L9.05322 35.9548H5.5375ZM18.0555 35.9548L20.9466 38.1264L19.8299 41.5142L22.6879 39.508L25.546 41.5142L24.4955 38.1264L27.3866 35.9548H23.8709L22.7211 32.5979L21.5712 35.9548H18.0555ZM5.5375 24.6705L8.42865 26.8421L7.31191 30.2299L10.17 28.2237L13.028 30.2299L11.9775 26.8421L14.8686 24.6705H11.3529L10.2031 21.3137L9.05322 24.6705H5.5375ZM18.0555 24.6705L20.9466 26.8421L19.8299 30.2299L22.6879 28.2237L25.546 30.2299L24.4955 26.8421L27.3866 24.6705H23.8709L22.7211 21.3137L21.5712 24.6705H18.0555ZM67.0792 39.5411L69.9372 41.5473L68.8536 38.1595L71.7447 35.9879H68.229L67.0792 32.6311L65.9293 35.9879H62.3805L65.2716 38.1595L64.2211 41.5473L67.0792 39.5411ZM54.5943 39.5411L57.4523 41.5473L56.3356 38.1595L59.2267 35.9879H55.711L54.5612 32.6311L53.4113 35.9879H49.8956L52.7868 38.1595L51.7362 41.5473L54.5943 39.5411ZM67.0792 28.2237L69.9372 30.2299L68.8536 26.8421L71.7447 24.6705H68.229L67.0792 21.3137L65.9293 24.6705H62.3805L65.2716 26.8421L64.2211 30.2299L67.0792 28.2237ZM54.5943 28.2237L57.4523 30.2299L56.3356 26.8421L59.2267 24.6705H55.711L54.5612 21.3137L53.4113 24.6705H49.8956L52.7868 26.8421L51.7362 30.2299L54.5943 28.2237ZM47.1416 18.1834C47.0036 17.9711 46.8505 17.7356 46.6094 17.7626C46.6094 17.7626 45.1307 18.5505 43.0319 20.5942C43.491 20.859 44.0162 21.221 44.3451 21.4836C44.1911 21.6231 44.0443 21.7622 43.9014 21.8976C43.7392 22.0513 43.582 22.2003 43.4247 22.3399C42.0763 21.2232 40.6638 20.6626 39.5471 20.4C39.909 20.1373 40.3019 19.8725 40.6638 19.643C41.2553 19.8085 41.8136 20.038 41.8136 20.038C44.1795 18.2283 46.2166 17.4713 46.2166 17.4713C46.2166 17.4713 45.987 17.3389 45.3625 17.372C36.0954 17.5022 27.5874 24.4123 29.1963 36.2549C29.3619 37.5041 29.854 39.8082 30.4786 40.7947C30.675 38.8216 31.4298 34.4783 33.6324 29.8061C32.8776 29.5435 32.253 29.4111 32.253 29.4111C32.4825 28.9498 32.7783 28.3252 32.7783 28.3252C34.3872 28.621 35.8327 29.3118 37.0819 30.2983C36.8812 30.6337 36.7253 30.8776 36.5948 31.0819C36.5329 31.1787 36.4767 31.2666 36.4242 31.351C36.0088 31.0303 35.5599 30.7411 35.1121 30.4527L35.0779 30.4307C32.6127 34.7409 31.4629 38.8194 31.0038 40.958C31.037 41.0882 31.2996 41.1544 31.5291 41.1213C41.6812 39.8037 46.413 34.6394 47.8586 29.0138C48.812 25.3282 48.4831 21.4792 47.234 18.321C47.2034 18.2786 47.1729 18.2316 47.1416 18.1834ZM38.6239 27.8296C38.3615 28.2244 38.0991 28.619 37.8698 28.9476C36.5544 27.8618 35.0095 27.171 33.4999 26.8753C33.4999 26.8753 33.959 26.1183 34.2216 25.7232C36.0623 26.0852 37.574 26.9415 38.6246 27.8287L38.6239 27.8296ZM40.3659 25.5577C40.0701 25.9196 39.8075 26.2485 39.5449 26.6104C38.3288 25.5908 36.817 24.8029 35.1419 24.4719C35.4046 24.143 35.7003 23.7811 35.996 23.4522C37.2783 23.6818 38.9203 24.3725 40.3659 25.5577ZM42.3367 23.4213C41.9748 23.7502 41.679 24.0459 41.4164 24.3747C40.1363 23.322 38.6908 22.6312 37.179 22.3024C37.4825 21.9989 37.8077 21.742 38.0987 21.5121C38.1547 21.4678 38.2095 21.4245 38.2626 21.3821C40.1672 21.8433 41.4495 22.6974 42.3367 23.4213Z" fill="currentColor"/>
</svg>
