<svg width="200" height="114" viewBox="0 0 124 114" fill="currentColor" xmlns="http://www.w3.org/2000/svg">
<g clip-path="url(#clip0_359_196275)">
<path d="M61.7139 0.90564C62.7888 1.02507 63.8661 1.12972 64.9397 1.26762C81.0971 3.33484 96.4578 14.2977 100.456 33.2843C102.013 40.6803 102.006 48.0479 99.7107 55.3245C95.3189 69.2447 83.4155 79.7335 68.9708 82.2144C47.5376 85.8945 28.0154 72.7032 23.2739 52.0383C21.2559 43.2437 22.3099 34.7027 25.974 26.4781C26.1919 25.9893 26.1648 25.7493 25.7105 25.4513C24.8068 24.8591 23.9474 24.2004 22.9673 23.4973C23.8255 22.1356 24.611 20.7714 25.5086 19.4873C30.2217 12.7525 36.1698 7.46436 43.743 4.12652C47.827 2.32401 52.1092 1.29963 56.5662 1.01276C56.7669 1.00044 56.9639 0.942576 57.1633 0.90564C58.6802 0.90564 60.1971 0.90564 61.7139 0.90564ZM47.2643 37.0556C47.1547 37.1159 47.0796 37.1491 47.0131 37.1947C46.741 37.3782 46.464 37.5542 46.203 37.7512C40.2894 42.223 37.9489 48.2437 38.7652 55.4907C39.5051 62.058 42.7543 67.2501 48.0757 71.1112C53.514 75.056 59.6332 76.4522 66.2768 75.7049C73.7824 74.8603 80.2266 71.7834 85.5196 66.4042C94.4842 57.2944 97.3886 43.0676 92.8639 30.78C87.1867 15.3565 71.2571 5.84407 54.9828 8.13046C48.0535 9.10435 42.0193 11.914 36.9664 16.7749C35.3079 18.3705 33.8551 20.1398 32.566 22.1639C32.694 22.255 32.8134 22.3338 32.9279 22.42C33.04 22.505 33.1471 22.5949 33.2715 22.6946C33.386 22.6146 33.4881 22.5493 33.5854 22.4767C36.3766 20.3873 39.414 18.7498 42.6952 17.5826C51.746 14.3629 60.6452 14.6055 68.9954 19.5328C78.7824 25.3085 84.0151 33.8766 83.4758 45.4907C83.2369 50.647 81.5305 55.3429 78.4081 59.486C72.0845 67.878 60.3682 70.3035 51.4369 65.0794C45.4187 61.5594 42.0981 54.3469 43.3576 47.484C44.0237 43.8532 45.4864 40.5818 47.8713 37.7069C47.6768 37.5 47.4711 37.2784 47.2643 37.0556ZM66.8297 53.9578C67.0698 53.6562 67.2754 53.405 67.4724 53.1477C69.6849 50.2407 69.8806 46.2774 67.9636 43.2363C66.0097 40.1386 62.2988 38.5675 58.7122 39.3235C52.5512 40.62 48.8193 46.7502 50.5197 52.7795C52.204 58.7522 58.6962 62.0666 64.5691 59.9354C66.6795 59.1696 68.3822 57.8497 69.7464 56.0041C68.7602 55.3121 67.8257 54.6559 66.8297 53.9578ZM76.5108 38.719C76.4763 38.5724 76.448 38.4148 76.4037 38.2622C75.559 35.3393 74.0927 32.7537 72.0574 30.5067C63.8033 21.3932 50.351 19.5513 40.1712 26.4806C31.8334 32.1565 28.1914 40.2137 29.5014 50.3306C29.7218 52.0322 30.2414 53.6734 30.9174 55.2481C31.8617 55.0413 31.8703 55.0401 31.8161 54.1413C31.544 49.6904 32.3948 45.455 34.3217 41.4473C39.6492 30.3725 50.7942 26.3168 61.1784 29.092C66.8937 30.62 71.4541 33.9529 75.1589 38.5109C75.7019 39.1807 75.6994 39.1831 76.5108 38.719Z" fill="currentColor"/>
<path d="M123.213 95.2369C121.149 95.2369 119.083 95.2369 116.959 95.2369C116.959 101.165 116.959 107.055 116.959 112.987C115.272 112.987 113.644 112.987 111.947 112.987C111.947 107.085 111.947 101.199 111.947 95.2345C109.783 95.2345 107.688 95.2345 105.56 95.2345C105.56 93.6524 105.56 92.1478 105.56 90.5632C111.468 90.5632 117.342 90.5632 123.215 90.5632C123.213 92.122 123.213 93.6795 123.213 95.2369Z" fill="currentColor"/>
<path d="M66.8786 94.0821C66.6447 93.831 66.4255 93.5933 66.1781 93.3274C67.2098 92.2279 68.4595 91.5175 69.8286 90.9967C74.6021 89.1782 80.0281 90.3318 83.265 93.842C88.2711 99.2717 86.9857 109.768 79.1182 112.592C74.6538 114.195 70.3371 113.7 66.6496 110.545C61.9944 106.561 61.9698 98.6561 66.4662 94.4774C66.6004 94.3518 66.7321 94.2237 66.8786 94.0821ZM70.3642 97.564C69.9973 97.9691 69.6378 98.3077 69.3472 98.698C67.6962 100.92 67.8181 104.394 69.6033 106.532C71.428 108.718 74.9358 109.447 77.5656 108.132C79.9616 106.934 81.0057 104.859 81.1953 102.275C81.5536 97.4052 77.8932 94.1006 73.1123 94.9957C71.79 95.2432 70.6142 95.8059 69.628 96.7822C69.8976 97.0679 70.1192 97.3042 70.3642 97.564Z" fill="currentColor"/>
<path d="M21.3713 112.993C21.3713 105.501 21.3713 98.0726 21.3713 90.6113C21.5584 90.5966 21.7173 90.5744 21.8748 90.5744C24.272 90.5719 26.6692 90.5646 29.0652 90.5756C30.6855 90.583 32.2282 90.9031 33.6638 91.7034C37.4523 93.8174 36.6114 99.5008 33.5074 100.682C33.452 100.702 33.404 100.744 33.2944 100.812C34.6254 101.327 35.6682 102.075 36.3762 103.235C38.468 106.664 36.7628 111.1 32.7712 112.411C31.6606 112.777 30.4528 112.958 29.2819 112.999C26.7653 113.086 24.2425 113.027 21.7234 113.026C21.6249 113.027 21.5252 113.009 21.3713 112.993ZM26.3356 103.222C26.3356 105.012 26.3356 106.836 26.3356 108.686C26.5597 108.696 26.7406 108.714 26.9229 108.712C27.8832 108.698 28.8473 108.73 29.8027 108.649C31.3233 108.521 32.1925 107.551 32.2565 106.025C32.3193 104.52 31.5042 103.416 29.9911 103.249C28.8029 103.117 27.589 103.222 26.3356 103.222ZM26.3405 94.8677C26.3405 96.435 26.3405 97.9925 26.3405 99.5796C26.5042 99.5906 26.6446 99.6103 26.785 99.6091C27.5828 99.6017 28.3856 99.635 29.1785 99.5685C30.5882 99.4503 31.3934 98.5453 31.375 97.1873C31.3565 95.8563 30.4885 94.9489 29.091 94.8763C28.191 94.8307 27.2898 94.8677 26.3405 94.8677Z" fill="currentColor"/>
<path d="M0.274789 90.4167C1.89262 90.4167 3.46858 90.4167 5.13812 90.4167C5.13812 90.6691 5.13812 90.9068 5.13812 91.1432C5.13812 95.2628 5.13319 99.3813 5.14428 103.501C5.14551 104.051 5.18244 104.612 5.29325 105.148C5.74881 107.35 7.3691 108.602 9.66533 108.567C11.9234 108.534 13.4587 107.249 13.8527 105.018C13.9586 104.417 13.9918 103.796 13.9931 103.185C14.0054 99.1683 13.9992 95.1508 13.9992 91.1346C13.9992 90.9142 13.9992 90.695 13.9992 90.4377C15.654 90.4377 17.2435 90.4377 18.9241 90.4377C18.9241 90.6371 18.9241 90.8329 18.9241 91.0299C18.9241 95.2518 18.918 99.4736 18.9266 103.695C18.929 105.082 18.7579 106.44 18.2519 107.731C16.9148 111.144 14.2898 112.824 10.739 113.186C9.24055 113.338 7.75077 113.231 6.2967 112.792C2.72246 111.711 0.344969 108.73 0.252627 104.844C0.141817 100.113 0.219384 95.3761 0.216922 90.6421C0.219384 90.583 0.246471 90.5263 0.274789 90.4167Z" fill="currentColor"/>
<path d="M61.5083 94.284C60.1822 95.2136 58.9116 96.105 57.6114 97.0161C57.428 96.7231 57.2802 96.4584 57.1054 96.2121C56.1254 94.8369 54.8153 94.1991 53.1212 94.5007C52.2889 94.6497 51.5957 95.04 51.379 95.9314C51.1561 96.8474 51.5514 97.5825 52.316 98.0208C53.1803 98.5158 54.1148 98.8913 55.0345 99.284C55.9936 99.6928 56.9946 100.009 57.934 100.457C60.7301 101.792 61.9835 103.805 61.8025 106.557C61.5945 109.719 59.9249 112.009 57.0562 112.917C54.5666 113.705 52.0796 113.602 49.6701 112.573C47.966 111.845 46.7176 110.614 45.9358 108.921C45.804 108.636 45.74 108.427 46.0663 108.197C47.2532 107.358 48.4179 106.489 49.6454 105.593C49.8277 105.909 49.9877 106.206 50.1638 106.493C51.2079 108.203 52.9303 109.054 54.7747 108.776C55.772 108.625 56.5612 107.965 56.7767 107.105C57.0205 106.128 56.7237 105.257 55.7806 104.668C55.0234 104.195 54.1813 103.853 53.3625 103.486C52.2999 103.01 51.1857 102.634 50.1589 102.091C47.513 100.694 46.3544 98.469 46.7237 95.679C47.0525 93.1919 48.9732 91.1198 51.6634 90.4882C54.1788 89.8972 56.6326 90.0806 58.9079 91.4251C60.0431 92.0937 60.9185 93.0196 61.5083 94.284Z" fill="currentColor"/>
<path d="M102.744 104.123C99.5247 104.123 96.3568 104.123 93.1236 104.123C93.1236 107.097 93.1236 110.019 93.1236 112.985C91.4528 112.985 89.8461 112.985 88.2024 112.985C88.2024 105.535 88.2024 98.1044 88.2024 90.6235C93.3427 90.6235 98.4905 90.6235 103.678 90.6235C103.678 92.1453 103.678 93.6511 103.678 95.2098C100.169 95.2098 96.6917 95.2098 93.1642 95.2098C93.1642 96.9299 93.1642 98.5969 93.1642 100.346C96.3408 100.346 99.5247 100.346 102.746 100.346C102.744 101.626 102.744 102.824 102.744 104.123Z" fill="currentColor"/>
<path d="M43.9975 90.6224C43.9975 98.0836 43.9975 105.515 43.9975 112.988C42.3649 112.988 40.7569 112.988 39.1157 112.988C39.1157 105.533 39.1157 98.1021 39.1157 90.6224C40.7126 90.6224 42.3181 90.6224 43.9975 90.6224Z" fill="currentColor"/>
</g>
<defs>
<clipPath id="clip0_359_196275">
<rect width="123.019" height="112.576" fill="currentColor" transform="translate(0.194946 0.90564)"/>
</clipPath>
</defs>
</svg>
