<svg width="28" height="28" viewBox="0 0 28 28" fill="none" xmlns="http://www.w3.org/2000/svg">
<path d="M26.8333 11.3283C26.891 9.65841 26.5258 8.001 25.7717 6.50998C25.26 5.89818 24.5498 5.48531 23.765 5.34331C20.5188 5.04876 17.2591 4.92803 14 4.98165C10.7528 4.9256 7.50483 5.04243 4.27 5.33165C3.63046 5.44798 3.0386 5.74796 2.56667 6.19498C1.51667 7.16331 1.4 8.81998 1.28333 10.22C1.11406 12.7371 1.11406 15.2628 1.28333 17.78C1.31709 18.568 1.43441 19.3501 1.63333 20.1133C1.774 20.7026 2.05861 21.2477 2.46167 21.7C2.93681 22.1707 3.54245 22.4877 4.2 22.61C6.71524 22.9205 9.24959 23.0491 11.7833 22.995C15.8667 23.0533 19.4483 22.995 23.6833 22.6683C24.357 22.5536 24.9797 22.2361 25.4683 21.7583C25.795 21.4316 26.0389 21.0316 26.18 20.5916C26.5972 19.3114 26.8022 17.9714 26.7867 16.625C26.8333 15.9716 26.8333 12.0283 26.8333 11.3283ZM11.3633 17.325V10.1033L18.27 13.7316C16.3333 14.805 13.7783 16.0183 11.3633 17.325Z" fill="white"/>
</svg>
