<svg width="223" height="127" viewBox="0 0 154 64" fill="none" xmlns="http://www.w3.org/2000/svg">
<path d="M31.9656 64C14.2949 64 0.00836647 49.694 3.62508e-06 32.0177C-0.00835922 14.2815 14.4538 -0.193183 32.3726 0.00195006C49.8607 0.192902 64.0427 14.4111 64.0204 32.0372C63.9981 49.7692 49.7157 64 31.9656 64ZM37.0934 27.0474C37.0878 26.908 37.092 26.7686 37.0767 26.6306C36.8077 24.0145 38.7562 22.5398 41.0002 22.6332C43.8994 22.7531 46.8068 22.6625 49.7101 22.6625C49.9554 22.6625 50.2008 22.6625 50.4266 22.6625C50.4266 19.6003 50.4266 16.6412 50.4266 13.6696C46.7957 13.6696 43.2164 13.5707 39.6441 13.6989C36.324 13.8188 33.5113 15.2335 31.2645 17.6977C28.849 20.346 27.8998 23.5127 28.0462 27.0488C27.1402 27.0544 26.2287 26.9944 25.3311 27.0794C23.9972 27.2063 22.6313 27.2857 21.3545 27.6495C15.4071 29.3416 11.5867 35.2388 12.4648 41.129C13.4377 47.6492 19.1565 52.1415 25.5192 51.7512C30.9997 51.4153 35.9254 47.2102 36.7909 41.7855C37.0892 39.9206 37.0028 37.9943 37.0934 36.0974C40.0552 36.0974 43.0171 36.0974 45.9733 36.0974C45.9733 33.0296 45.9733 30.0706 45.9733 27.0488C42.9822 27.0474 40.0385 27.0474 37.0934 27.0474Z" fill="#00EE8B"/>
<path d="M133.24 26.4606C135.185 26.4606 137.02 26.4787 138.852 26.4481C139.319 26.4397 139.371 26.7255 139.477 27.0279C140.853 30.9612 142.227 34.8946 143.604 38.8265C143.714 39.1415 143.839 39.4509 144.032 39.9583C145.233 35.3378 146.382 30.918 147.533 26.4843C149.472 26.4843 151.37 26.4843 153.356 26.4843C151.326 33.3223 149.305 40.1199 147.279 46.9412C145.265 46.9412 143.272 46.9412 141.227 46.9412C139.864 43.3159 138.491 39.6656 137.039 35.8033C135.686 39.8718 134.401 43.7383 133.116 47.6005C131.219 47.6005 129.383 47.5726 127.55 47.6172C126.969 47.6312 126.986 47.2381 126.889 46.9134C125.25 41.3841 123.621 35.8535 121.99 30.3229C121.597 28.9904 121.205 27.6579 120.815 26.324C120.772 26.1735 120.751 26.016 120.713 25.8306C122.751 25.8306 124.744 25.8306 126.814 25.8306C128.039 30.5403 129.269 35.2583 130.54 40.1478C131.145 38.3456 131.695 36.7051 132.244 35.0646C132.84 33.2847 133.421 31.4992 134.038 29.7277C134.2 29.265 134.232 28.8677 134.009 28.4092C133.72 27.8112 133.516 27.1701 133.24 26.4606Z" fill="white"/>
<path d="M109.511 47.8096C103.352 47.8138 98.4334 42.8839 98.4279 36.6995C98.4223 30.5793 103.257 25.7163 109.351 25.7149C115.619 25.7135 120.522 30.571 120.522 36.7818C120.521 42.8713 115.595 47.8054 109.511 47.8096ZM104.538 36.7553C104.536 39.6586 106.898 42.0936 109.74 42.1173C112.588 42.1396 114.802 39.7297 114.804 36.6103C114.805 33.7433 112.508 31.3682 109.753 31.3863C106.92 31.4059 104.541 33.8562 104.538 36.7553Z" fill="white"/>
<path d="M83.779 47.5601C82.0367 47.5601 80.353 47.5601 78.6093 47.5601C78.6093 42.4587 78.6093 37.3811 78.6093 32.2547C77.5389 32.2547 76.5256 32.2547 75.4593 32.2547C75.4593 30.5236 75.4593 28.8426 75.4593 27.0823C76.2566 27.0823 77.0789 27.0823 77.9765 27.0823C77.8455 23.9741 77.9933 21.0081 80.8088 19.0372C82.6792 17.727 85.6801 17.2963 88.2308 17.9403C88.2308 18.8672 88.2308 19.815 88.2308 20.7614C88.2308 21.6882 88.2308 22.6165 88.2308 23.5894C87.0906 23.3901 85.9394 22.9008 84.9665 23.8514C84.0591 24.7365 84.4591 25.8961 84.3616 27.0655C85.0208 27.0655 85.6355 27.0655 86.2502 27.0655C86.8746 27.0655 87.5004 27.0655 88.1778 27.0655C88.1778 28.7799 88.1778 30.4595 88.1778 32.2143C86.7324 32.2143 85.2843 32.2143 83.779 32.2143C83.779 37.3658 83.779 42.442 83.779 47.5601Z" fill="white"/>
<path d="M96.5002 47.5796C94.5754 47.5796 92.7202 47.5796 90.8135 47.5796C90.8135 37.7895 90.8135 28.0022 90.8135 18.1675C92.6728 18.1675 94.5642 18.1675 96.5002 18.1675C96.5002 27.9436 96.5002 37.7282 96.5002 47.5796Z" fill="white"/>
<path d="M37.1059 27.0349C37.1059 30.0594 37.1059 33.0826 37.1059 36.1072C34.0842 36.1016 31.0624 36.096 28.0406 36.0904L28.0518 36.1016C28.0462 33.0798 28.0406 30.0567 28.035 27.0349C31.0582 27.0349 34.0828 27.0349 37.1059 27.0349Z" fill="#17FE99"/>
<path d="M28.0406 36.0904C28.0406 37.2264 28.049 38.3624 28.0392 39.4969C28.0225 41.2768 26.5339 42.7626 24.754 42.7891C22.9574 42.8156 21.4089 41.3284 21.3545 39.5234C21.3002 37.7547 22.733 36.1755 24.5087 36.1086C25.6879 36.064 26.8712 36.1016 28.0518 36.1016L28.0406 36.0904Z" fill="#01EE8B"/>
</svg>
